<svg width="600" height="400" viewBox="0 0 600 400" fill="none" xmlns="http://www.w3.org/2000/svg">
<path d="M600 399.861H0L107.705 336.188H493.943L600 399.861Z" fill="#D0F0E4"/>
<path d="M344.008 88.578H236.062V26.0907C236.062 21.8597 239.488 18.43 243.714 18.43H336.356C340.582 18.43 344.008 21.8597 344.008 26.0907V88.578Z" fill="white"/>
<path fill-rule="evenodd" clip-rule="evenodd" d="M243.715 18.9108C239.754 18.9108 236.543 22.1252 236.543 26.0907V88.0971H343.528V26.0907C343.528 22.1252 340.317 18.9108 336.356 18.9108H243.715ZM344.008 88.578L344.488 88.5779V26.0907C344.488 21.5941 340.847 17.9492 336.356 17.9492H243.715C239.223 17.9492 235.582 21.5941 235.582 26.0907V89.0587H344.008L344.008 88.578Z" fill="#66B0F0"/>
<path d="M335.86 84.5072H244.659C242.258 84.5072 240.305 82.5519 240.305 80.148V26.5875C240.305 24.1835 242.258 22.2283 244.659 22.2283H335.86C338.261 22.2283 340.214 24.1835 340.214 26.5875V80.164C340.214 82.568 338.261 84.5072 335.86 84.5072Z" fill="#66B0F0"/>
<path d="M362.931 103.242C367.061 105.934 366.1 111.207 361.218 111.207H214.163C210.049 111.207 208.64 105.646 212.674 103.098L362.931 103.242Z" fill="#66B0F0"/>
<path fill-rule="evenodd" clip-rule="evenodd" d="M212.535 102.617L363.073 102.761L363.192 102.839C365.391 104.273 366.304 106.447 365.924 108.33C365.538 110.241 363.852 111.688 361.217 111.688H214.162C211.852 111.688 210.296 110.112 209.893 108.208C209.489 106.302 210.23 104.073 212.417 102.691L212.535 102.617ZM212.815 103.579C211.059 104.748 210.518 106.528 210.832 108.008C211.153 109.522 212.358 110.726 214.162 110.726H361.217C363.464 110.726 364.7 109.537 364.982 108.139C365.265 106.741 364.626 104.978 362.784 103.723L212.815 103.579Z" fill="#66B0F0"/>
<path d="M361.216 107.537H214.162C211.537 107.537 210.496 104.444 212.673 103.098L236.094 88.578H343.703L362.913 103.242C364.834 104.701 363.714 107.537 361.216 107.537Z" fill="white"/>
<path fill-rule="evenodd" clip-rule="evenodd" d="M235.958 88.0974H343.866L363.204 102.859C364.343 103.724 364.597 105.03 364.169 106.114C363.744 107.19 362.661 108.018 361.217 108.018H214.162C212.644 108.018 211.544 107.114 211.162 105.976C210.777 104.83 211.136 103.484 212.421 102.689M236.231 89.0589L212.927 103.507C212.035 104.058 211.825 104.932 212.072 105.669C212.323 106.415 213.056 107.057 214.162 107.057H361.217C362.27 107.057 362.997 106.466 363.276 105.76C363.552 105.061 363.406 104.219 362.624 103.625L343.541 89.0589H236.231Z" fill="#66B0F0"/>
<path d="M344.248 103.162H231.132C229.115 103.162 228.314 100.774 229.979 99.7487L246.244 88.5782H330.769L345.545 99.8608C347.034 100.983 346.169 103.162 344.248 103.162Z" fill="white"/>
<path fill-rule="evenodd" clip-rule="evenodd" d="M246.095 88.0974H330.931L345.833 99.4767C345.834 99.477 345.834 99.4773 345.835 99.4777C346.757 100.173 346.968 101.23 346.622 102.109C346.278 102.98 345.403 103.643 344.248 103.643H231.132C229.916 103.643 229.029 102.913 228.719 101.994C228.408 101.07 228.693 99.9824 229.717 99.3457L246.095 88.0974ZM246.393 89.0589L230.241 100.152L230.231 100.158C229.598 100.548 229.454 101.163 229.63 101.687C229.808 102.217 230.33 102.681 231.132 102.681H344.248C345.014 102.681 345.531 102.255 345.728 101.756C345.922 101.265 345.822 100.671 345.256 100.245L345.255 100.244L330.606 89.0589H246.393Z" fill="#66B0F0"/>
<path fill-rule="evenodd" clip-rule="evenodd" d="M337.908 103.505L323.116 88.9207L323.79 88.2355L338.582 102.82L337.908 103.505Z" fill="#66B0F0"/>
<path fill-rule="evenodd" clip-rule="evenodd" d="M328.281 103.483L315.25 88.8984L315.966 88.2574L328.997 102.841L328.281 103.483Z" fill="#66B0F0"/>
<path fill-rule="evenodd" clip-rule="evenodd" d="M319.199 103.457L307.897 88.8731L308.656 88.2837L319.958 102.868L319.199 103.457Z" fill="#66B0F0"/>
<path fill-rule="evenodd" clip-rule="evenodd" d="M309.236 103.426L299.679 88.8421L300.482 88.3146L310.039 102.899L309.236 103.426Z" fill="#66B0F0"/>
<path fill-rule="evenodd" clip-rule="evenodd" d="M297.478 103.309L292.819 88.7249L293.734 88.432L298.393 103.016L297.478 103.309Z" fill="#66B0F0"/>
<path fill-rule="evenodd" clip-rule="evenodd" d="M237.982 102.82L252.774 88.2358L253.448 88.9209L238.656 103.505L237.982 102.82Z" fill="#66B0F0"/>
<path fill-rule="evenodd" clip-rule="evenodd" d="M247.567 102.842L260.598 88.2577L261.314 88.8987L248.283 103.483L247.567 102.842Z" fill="#66B0F0"/>
<path fill-rule="evenodd" clip-rule="evenodd" d="M256.606 102.868L267.908 88.2839L268.667 88.8733L257.365 103.457L256.606 102.868Z" fill="#66B0F0"/>
<path fill-rule="evenodd" clip-rule="evenodd" d="M266.525 102.899L276.082 88.3148L276.885 88.8422L267.328 103.426L266.525 102.899Z" fill="#66B0F0"/>
<path fill-rule="evenodd" clip-rule="evenodd" d="M278.171 103.016L282.83 88.4318L283.745 88.7247L279.086 103.309L278.171 103.016Z" fill="#66B0F0"/>
<path fill-rule="evenodd" clip-rule="evenodd" d="M288.378 88.5782V103.339H287.417V88.5782H288.378Z" fill="#66B0F0"/>
<path fill-rule="evenodd" clip-rule="evenodd" d="M337.924 94.5079H238.319V93.5463H337.924V94.5079Z" fill="#66B0F0"/>
<path d="M328.271 84.5069H247.284L248.741 74.1698C249.637 67.8073 254.2 62.5826 260.363 60.8197L280.102 56.7169H295.454L315.192 60.8197C321.372 62.5666 325.934 67.8073 326.814 74.1698L328.271 84.5069Z" fill="#FFCF2D"/>
<path d="M293.244 68.5283L287.401 62.6146C287.273 62.4864 287.273 62.278 287.401 62.1658C287.529 62.0376 287.737 62.0376 287.85 62.1658L293.212 67.5988L301.537 58.1592C301.649 58.031 301.857 58.015 301.985 58.1272C302.113 58.2394 302.129 58.4477 302.017 58.5759L293.244 68.5283Z" fill="white"/>
<path d="M282.39 68.5286L273.618 58.5762C273.506 58.448 273.506 58.2396 273.65 58.1274C273.778 58.0152 273.986 58.0153 274.098 58.1595L282.422 67.5991L287.785 62.1661C287.913 62.0379 288.106 62.0379 288.234 62.1661C288.362 62.2943 288.362 62.4866 288.234 62.6148L282.39 68.5286Z" fill="white"/>
<path d="M287.914 72.391C287.145 72.391 286.521 71.766 286.521 70.9967C286.521 70.2275 287.145 69.6024 287.914 69.6024C288.682 69.6024 289.306 70.2275 289.306 70.9967C289.306 71.766 288.682 72.391 287.914 72.391ZM287.914 70.2435C287.498 70.2435 287.161 70.58 287.161 70.9967C287.161 71.4134 287.498 71.75 287.914 71.75C288.33 71.75 288.666 71.4134 288.666 70.9967C288.666 70.58 288.33 70.2435 287.914 70.2435Z" fill="white"/>
<path d="M287.914 80.2438C287.145 80.2438 286.521 79.6188 286.521 78.8495C286.521 78.0802 287.145 77.4552 287.914 77.4552C288.682 77.4552 289.306 78.0802 289.306 78.8495C289.306 79.6188 288.682 80.2438 287.914 80.2438ZM287.914 78.0963C287.498 78.0963 287.161 78.4328 287.161 78.8495C287.161 79.2662 287.498 79.6028 287.914 79.6028C288.33 79.6028 288.666 79.2662 288.666 78.8495C288.666 78.4328 288.33 78.0963 287.914 78.0963Z" fill="white"/>
<path d="M280.006 84.1706H253.848L246.869 63.4324L273.027 55.932L280.006 84.1706Z" fill="white"/>
<path fill-rule="evenodd" clip-rule="evenodd" d="M273.257 55.5322L280.414 84.491H253.617L246.457 63.2165L273.257 55.5322ZM247.278 63.6479L254.077 83.8499H279.596L272.795 56.3315L247.278 63.6479Z" fill="#66B0F0"/>
<path d="M255.208 66.1249H254.712C253.447 66.1249 252.422 65.0992 252.422 63.8331V56.6372C252.422 56.1244 252.839 55.7077 253.351 55.7077H255.512C256.024 55.7077 256.44 56.1244 256.44 56.6372V64.8748C256.456 65.564 255.896 66.1249 255.208 66.1249Z" fill="white"/>
<path fill-rule="evenodd" clip-rule="evenodd" d="M253.351 56.0279C253.015 56.0279 252.742 56.3011 252.742 56.637V63.8328C252.742 64.9219 253.624 65.8041 254.712 65.8041H255.208C255.721 65.8041 256.132 65.3869 256.12 64.882L256.12 64.8783V56.637C256.12 56.3011 255.847 56.0279 255.512 56.0279H253.351ZM252.102 56.637C252.102 55.9471 252.662 55.3869 253.351 55.3869H255.512C256.201 55.3869 256.761 55.9471 256.761 56.637V64.871C256.779 65.7426 256.07 66.4452 255.208 66.4452H254.712C253.27 66.4452 252.102 65.276 252.102 63.8328V56.637Z" fill="#66B0F0"/>
<path d="M265.742 66.1249H266.238C267.503 66.1249 268.527 65.0992 268.527 63.8331V56.6372C268.527 56.1244 268.111 55.7077 267.599 55.7077H265.422C264.909 55.7077 264.493 56.1244 264.493 56.6372V64.8748C264.493 65.564 265.053 66.1249 265.742 66.1249Z" fill="white"/>
<path d="M259.226 66.958H258.073C257.177 66.958 256.456 66.2368 256.456 65.3393V56.6529C256.456 56.1401 256.873 55.7234 257.385 55.7234H259.546C260.058 55.7234 260.475 56.1401 260.475 56.6529V65.7079C260.475 66.397 259.914 66.958 259.226 66.958Z" fill="white"/>
<path d="M263.26 67.2788H262.3C261.291 67.2788 260.475 66.4615 260.475 65.4518V56.6372C260.475 56.1244 260.891 55.7077 261.403 55.7077H263.564C264.076 55.7077 264.493 56.1244 264.493 56.6372L264.493 66.0287C264.493 66.7179 263.932 67.2788 263.26 67.2788Z" fill="white"/>
<path fill-rule="evenodd" clip-rule="evenodd" d="M264.172 56.637C264.172 55.9471 264.732 55.3869 265.421 55.3869H267.598C268.287 55.3869 268.847 55.9471 268.847 56.637V63.8328C268.847 65.276 267.679 66.4452 266.238 66.4452H265.741C264.876 66.4452 264.172 65.7407 264.172 64.8746V56.637ZM265.421 56.0279C265.086 56.0279 264.813 56.3011 264.813 56.637V64.8746C264.813 65.3867 265.23 65.8041 265.741 65.8041H266.238C267.325 65.8041 268.207 64.9219 268.207 63.8328V56.637C268.207 56.3011 267.934 56.0279 267.598 56.0279H265.421Z" fill="#66B0F0"/>
<path fill-rule="evenodd" clip-rule="evenodd" d="M257.385 56.044C257.05 56.044 256.777 56.3172 256.777 56.653V65.3394C256.777 66.0599 257.354 66.6376 258.073 66.6376H259.226C259.738 66.6376 260.155 66.2201 260.155 65.708V56.653C260.155 56.3172 259.882 56.044 259.546 56.044H257.385ZM256.136 56.653C256.136 55.9632 256.696 55.403 257.385 55.403H259.546C260.235 55.403 260.795 55.9632 260.795 56.653V65.708C260.795 66.5742 260.091 67.2786 259.226 67.2786H258.073C257 67.2786 256.136 66.4139 256.136 65.3394V56.653Z" fill="#66B0F0"/>
<path fill-rule="evenodd" clip-rule="evenodd" d="M261.404 56.0279C261.068 56.0279 260.795 56.3011 260.795 56.6369V65.4515C260.795 66.2842 261.468 66.958 262.3 66.958H263.261C263.753 66.958 264.173 66.5433 264.173 66.0285L264.172 56.637C264.172 56.3011 263.9 56.0279 263.565 56.0279H261.404ZM260.155 56.6369C260.155 55.9471 260.714 55.3869 261.404 55.3869H263.565C264.254 55.3869 264.813 55.9471 264.813 56.637L264.813 66.0285C264.813 66.8919 264.112 67.5991 263.261 67.5991H262.3C261.115 67.5991 260.155 66.6382 260.155 65.4515V56.6369Z" fill="#66B0F0"/>
<path d="M295.47 47.2934V58.9927C295.47 61.0121 292.028 62.6628 287.786 62.6628C283.543 62.6628 280.102 61.0121 280.102 58.9927V47.2934H295.47Z" fill="white"/>
<path d="M295.468 47.2934C295.468 56.124 289.817 58.7524 284.391 58.2876C284.375 58.2876 284.359 58.2876 284.343 58.2876C281.941 58.0632 280.116 56.0118 280.116 53.6079V47.3094H295.468V47.2934Z" fill="#66B0F0"/>
<path d="M299.04 44.2802V44.8732C299.04 46.1873 297.983 47.2451 296.67 47.2451H295.454L295.47 47.5175C295.47 51.2998 292.412 54.3608 288.634 54.3608H286.953C283.175 54.3608 280.117 51.2998 280.117 47.5175L280.133 47.2451H278.917C277.604 47.2451 276.548 46.1873 276.548 44.8732V44.2802C276.548 42.966 277.604 41.9083 278.917 41.9083H280.47L280.646 39.0075C280.646 38.5587 280.71 38.126 280.838 37.7253C285.416 38.8632 290.779 35.9143 292.22 35.0329C293.821 35.6419 294.957 37.1804 294.957 38.9914L295.133 41.8922H296.686C297.983 41.9083 299.04 42.966 299.04 44.2802Z" fill="white"/>
<path d="M296.782 41.9085H295.118L294.941 39.0077C294.941 37.1967 293.805 35.6581 292.204 35.0491C290.763 35.9146 285.4 38.8634 280.822 37.7416C280.694 38.1422 280.63 38.575 280.63 39.0237L280.454 41.9245H279.413C279.413 41.9245 277.284 31.6034 279.381 29.7123C280.934 28.318 295.15 31.363 296.718 33.5266C297.599 34.7607 296.782 41.9085 296.782 41.9085Z" fill="#E57281"/>
<path d="M292.78 41.2836C292.732 41.2836 292.668 41.2676 292.62 41.2195C292.604 41.2035 291.563 40.354 289.899 40.354C289.77 40.354 289.658 40.2419 289.658 40.1137C289.658 39.9854 289.77 39.8733 289.899 39.8733C291.74 39.8733 292.876 40.8028 292.924 40.8509C293.02 40.931 293.036 41.0913 292.956 41.1874C292.924 41.2515 292.844 41.2836 292.78 41.2836Z" fill="#66B0F0"/>
<path d="M286.697 46.2517C286.665 46.2517 286.633 46.2517 286.617 46.2357C286.489 46.1876 286.425 46.0434 286.473 45.9312C286.921 44.7452 286.809 43.2548 286.185 41.9406C285.817 41.1393 285.288 40.5623 284.824 40.4021C283.799 40.0495 282.359 40.5463 282.343 40.5463C282.215 40.5944 282.087 40.5303 282.039 40.4021C281.99 40.2739 282.055 40.1456 282.183 40.0976C282.247 40.0815 283.783 39.5527 284.968 39.9533C285.56 40.1617 286.169 40.8188 286.601 41.7483C287.273 43.1746 287.385 44.8093 286.905 46.1235C286.889 46.1876 286.793 46.2517 286.697 46.2517Z" fill="#66B0F0"/>
<path d="M289.851 48.8002C289.867 48.9284 289.755 49.0406 289.627 49.0566H289.611C289.483 49.0566 289.387 48.9604 289.371 48.8322C289.355 48.672 289.323 48.5117 289.275 48.3675C288.587 48.704 287.962 48.8162 287.45 48.8162C286.441 48.8162 285.833 48.3995 285.801 48.3675C285.689 48.2873 285.673 48.1431 285.737 48.0309C285.817 47.9187 285.961 47.9027 286.073 47.9668C286.105 47.9828 286.618 48.3354 287.45 48.3354C287.898 48.3354 288.442 48.2392 289.067 47.9347C288.971 47.7745 288.875 47.6783 288.875 47.6783C288.779 47.5822 288.795 47.4219 288.891 47.3418C288.987 47.2616 289.147 47.2616 289.227 47.3578C289.259 47.4059 289.803 48.0149 289.851 48.8002Z" fill="#66B0F0"/>
<path d="M290.715 44.2197C290.936 44.2059 291.092 43.8367 291.065 43.395C291.037 42.9532 290.836 42.6063 290.616 42.6201C290.395 42.6339 290.238 43.0031 290.266 43.4448C290.293 43.8865 290.495 44.2335 290.715 44.2197Z" fill="#66B0F0"/>
<path d="M284.18 44.1557C284.383 44.143 284.527 43.8033 284.501 43.3969C284.476 42.9905 284.291 42.6714 284.088 42.684C283.885 42.6967 283.741 43.0364 283.766 43.4428C283.792 43.8492 283.977 44.1684 284.18 44.1557Z" fill="#66B0F0"/>
<path d="M279.701 45.0497C279.573 45.0497 279.461 44.9375 279.461 44.8093C279.461 44.1041 278.885 43.5432 278.197 43.5432C278.068 43.5432 277.956 43.431 277.956 43.3028C277.956 43.1746 278.068 43.0624 278.197 43.0624C279.157 43.0624 279.941 43.8477 279.941 44.8093C279.941 44.9535 279.829 45.0497 279.701 45.0497Z" fill="#66B0F0"/>
<path d="M295.806 45.0497C295.678 45.0497 295.566 44.9375 295.566 44.8093C295.566 43.8477 296.35 43.0624 297.311 43.0624C297.439 43.0624 297.551 43.1746 297.551 43.3028C297.551 43.431 297.439 43.5432 297.311 43.5432C296.606 43.5432 296.046 44.1201 296.046 44.8093C296.046 44.9535 295.95 45.0497 295.806 45.0497Z" fill="#66B0F0"/>
<path fill-rule="evenodd" clip-rule="evenodd" d="M79.8698 172.904C81.2578 168.099 85.6399 164.8 90.6246 164.8H506.767C511.7 164.8 516.065 168.031 517.488 172.754M80.7925 173.171L15.3657 399.994L14.4429 399.727L79.8698 172.904M80.7925 173.171C80.7925 173.171 80.7925 173.171 80.7925 173.171C82.062 168.777 86.0684 165.762 90.6246 165.762H506.767C511.279 165.762 515.269 168.717 516.568 173.032L585.133 400L586.052 399.721L517.488 172.754" fill="#66B0F0"/>
<path fill-rule="evenodd" clip-rule="evenodd" d="M386.638 89.0592H204.621V88.0977H386.638V89.0592Z" fill="#66B0F0"/>
<path d="M267.791 123.068H310.79V160.041H267.791C267.791 160.041 267.791 121.674 267.791 123.068Z" fill="#FFCF2D"/>
<path d="M428.58 294.856L408.586 245.014H440.779L428.58 294.856Z" fill="#9A3B82"/>
<path d="M373.719 178.488C378.009 170.362 386.446 165.282 395.619 165.282H420.384L437.209 178.488H373.719Z" fill="#9A3B82"/>
<path d="M467.609 236.84H405.224L428.708 293.91C427.076 291.25 417.294 294.023 406.937 300.385C396.707 306.668 389.792 314.232 391.201 316.989L340.582 228.811C327.455 206.566 343.463 178.488 369.269 178.488H509.071L509.375 179.449C518.5 207.816 497.369 236.84 467.609 236.84Z" fill="#3FB1B5"/>
<path d="M511.489 194.851C511.265 200.059 510.112 205.092 508.159 209.755L434.84 178.504H507.615L509.312 183.472C510.496 186.453 511.153 190.636 511.489 194.851Z" fill="#E6E6E6"/>
<path d="M428.725 293.91C430.357 296.571 423.218 303.831 412.876 310.193C402.519 316.556 392.897 319.745 391.265 317.085C389.632 314.424 396.595 306.908 406.953 300.545C417.294 294.183 427.076 291.25 428.725 293.91Z" fill="#66B0F0"/>
<path fill-rule="evenodd" clip-rule="evenodd" d="M475.53 182.553C475.79 182.498 476.045 182.664 476.099 182.924C478.628 194.922 469.483 206.214 457.236 206.214H368.564C361.617 206.214 357.252 213.702 360.642 219.761C360.642 219.761 360.642 219.761 360.642 219.761L406.17 300.341C406.301 300.572 406.219 300.865 405.988 300.996C405.758 301.127 405.465 301.045 405.334 300.814L359.806 220.233L359.805 220.231C356.056 213.534 360.88 205.252 368.564 205.252H457.236C468.873 205.252 477.562 194.523 475.159 183.123C475.105 182.863 475.271 182.608 475.53 182.553Z" fill="white"/>
<path fill-rule="evenodd" clip-rule="evenodd" d="M421.887 293.542C418.186 294.464 413.242 296.729 407.195 300.256C401.837 303.383 397.415 307.042 394.543 310.236C393.105 311.836 392.071 313.301 391.498 314.509C391.211 315.113 391.048 315.634 390.999 316.062C390.949 316.49 391.014 316.795 391.145 317.009C391.284 317.235 391.214 317.531 390.988 317.67C390.762 317.809 390.466 317.739 390.327 317.513C390.05 317.061 389.979 316.52 390.045 315.951C390.11 315.383 390.316 314.758 390.63 314.096C391.258 312.772 392.358 311.229 393.829 309.593C396.776 306.316 401.278 302.596 406.711 299.425C412.782 295.884 417.82 293.565 421.655 292.608C423.571 292.13 425.224 291.984 426.57 292.22C427.931 292.459 428.991 293.094 429.66 294.169C429.801 294.394 429.732 294.691 429.507 294.831C429.282 294.972 428.986 294.903 428.845 294.678C428.346 293.877 427.549 293.368 426.404 293.167C425.243 292.963 423.738 293.08 421.887 293.542Z" fill="white"/>
<path fill-rule="evenodd" clip-rule="evenodd" d="M399.675 223.335C399.92 223.232 400.202 223.348 400.304 223.593L430.048 294.59C430.151 294.835 430.036 295.117 429.791 295.219C429.546 295.322 429.265 295.207 429.162 294.962L399.418 223.964C399.316 223.72 399.431 223.438 399.675 223.335Z" fill="white"/>
<path fill-rule="evenodd" clip-rule="evenodd" d="M440.091 178.44H367.524V177.478H440.091V178.44Z" fill="white"/>
<path d="M408.569 320.755L398.292 306.747C400.725 304.696 403.655 302.565 406.936 300.545C413.468 296.539 419.759 293.878 423.937 293.141L430.453 306.138C427.891 315.258 408.569 320.755 408.569 320.755Z" fill="#E57281"/>
<path d="M426.85 298.926C424.16 302.212 419.102 306.363 412.874 310.193C409.881 312.036 406.951 313.607 404.262 314.857L398.306 306.747C400.74 304.696 403.669 302.565 406.951 300.545C413.483 296.539 419.774 293.878 423.952 293.141L426.85 298.926Z" fill="#9A3B82"/>
<path d="M450.241 337.919L406.314 369.507C402.584 372.104 396.788 374.267 397.557 364.876C398.629 351.926 401.495 332.663 408.571 320.739C408.875 320.659 427.893 315.162 430.454 306.123L450.481 320.37C456.244 324.858 456.116 333.608 450.241 337.919Z" fill="white"/>
<path fill-rule="evenodd" clip-rule="evenodd" d="M430.177 305.336L450.767 319.984L450.775 319.991C456.789 324.674 456.656 333.807 450.524 338.307L450.522 338.308L406.589 369.9L406.586 369.902C405.635 370.565 404.54 371.207 403.44 371.646C402.348 372.082 401.202 372.337 400.167 372.161C399.096 371.979 398.196 371.345 397.639 370.127C397.095 368.941 396.882 367.219 397.077 364.836C397.614 358.348 398.601 350.272 400.342 342.32C402.082 334.374 404.581 326.519 408.157 320.493L408.257 320.324L408.447 320.274C408.447 320.274 408.449 320.273 408.452 320.272L408.467 320.268C408.479 320.265 408.497 320.26 408.518 320.254C408.562 320.241 408.623 320.223 408.7 320.2C408.854 320.154 409.073 320.087 409.347 320C409.896 319.826 410.669 319.571 411.595 319.24C413.45 318.576 415.918 317.605 418.453 316.359C420.991 315.111 423.581 313.593 425.689 311.839C427.802 310.08 429.389 308.118 429.991 305.991L430.177 305.336ZM430.707 306.893C429.919 309.025 428.289 310.925 426.303 312.578C424.115 314.399 421.451 315.956 418.877 317.222C414.252 319.496 409.859 320.86 408.886 321.148C405.437 327.024 402.995 334.694 401.28 342.526C399.551 350.423 398.569 358.454 398.034 364.915C397.845 367.228 398.068 368.758 398.512 369.726C398.941 370.663 399.579 371.086 400.327 371.213C401.111 371.346 402.065 371.16 403.085 370.753C404.095 370.35 405.123 369.75 406.035 369.115C406.036 369.114 406.037 369.113 406.038 369.113L449.956 337.531C449.957 337.531 449.957 337.53 449.958 337.53C455.571 333.409 455.696 325.049 450.193 320.756L430.707 306.893Z" fill="#FFCF2D"/>
<path fill-rule="evenodd" clip-rule="evenodd" d="M432.793 307.439C433.048 307.512 433.196 307.778 433.124 308.033C432.331 310.828 430.47 313.345 428.114 315.529C425.754 317.716 422.873 319.593 419.99 321.105C417.106 322.617 414.207 323.771 411.803 324.507C410.602 324.875 409.517 325.14 408.616 325.293C407.73 325.443 406.972 325.493 406.447 325.394C406.187 325.345 406.015 325.094 406.064 324.833C406.113 324.572 406.364 324.4 406.625 324.449C406.973 324.515 407.59 324.491 408.456 324.345C409.306 324.201 410.349 323.947 411.522 323.587C413.869 322.869 416.713 321.737 419.544 320.253C422.376 318.768 425.182 316.936 427.461 314.824C429.743 312.709 431.472 310.336 432.2 307.77C432.272 307.515 432.538 307.367 432.793 307.439Z" fill="#FFCF2D"/>
<path d="M401.814 366.254C401.814 366.254 430.485 326.38 450.88 328.624C473.084 331.044 383.66 389.508 401.814 366.254Z" fill="#FFCF2D"/>
<path fill-rule="evenodd" clip-rule="evenodd" d="M400.059 365.349C400.059 365.35 400.059 365.35 399.669 365.068L400.059 365.349L400.053 365.357L400.048 365.364C398.48 367.374 398.354 368.884 398.726 369.816C399.102 370.756 400.042 371.267 400.967 371.207C401.232 371.19 401.46 371.391 401.477 371.656C401.494 371.921 401.294 372.15 401.029 372.167C399.729 372.251 398.379 371.536 397.835 370.173C397.287 368.802 397.608 366.933 399.285 364.779L399.303 364.755C399.317 364.735 399.339 364.705 399.368 364.666C399.426 364.587 399.511 364.47 399.624 364.318C399.849 364.014 400.181 363.569 400.611 363.004C401.471 361.875 402.723 360.265 404.292 358.34C407.428 354.492 411.833 349.383 416.906 344.345C421.977 339.31 427.729 334.332 433.558 330.758C439.376 327.19 445.337 324.98 450.805 325.582C452.577 325.772 453.817 326.602 454.494 327.75C455.164 328.887 455.248 330.28 454.826 331.548C454.742 331.8 454.47 331.937 454.219 331.853C453.967 331.769 453.831 331.496 453.915 331.244C454.261 330.205 454.178 329.106 453.667 328.239C453.163 327.384 452.21 326.7 450.701 326.538L450.7 326.538C445.546 325.97 439.811 328.051 434.06 331.578C428.319 335.098 422.627 340.018 417.583 345.028C412.541 350.035 408.158 355.116 405.036 358.948C403.475 360.863 402.23 362.465 401.375 363.587C400.948 364.149 400.618 364.59 400.395 364.891C400.284 365.041 400.2 365.156 400.143 365.233C400.115 365.272 400.094 365.301 400.079 365.321L400.064 365.343L400.059 365.349Z" fill="#FFCF2D"/>
<path d="M511.649 198.104C501.5 195.7 476.238 189.369 447.423 182.702C433.88 179.577 422.546 170.346 416.703 157.717L390.465 100.887L406.345 75.6935C411.228 67.9367 419.552 63.0005 428.693 62.4396L444.317 61.478C460.07 60.5164 472.717 70.3567 477.519 85.4056L509.296 178.487C512.786 187.206 511.649 198.104 511.649 198.104Z" fill="white"/>
<path fill-rule="evenodd" clip-rule="evenodd" d="M444.346 61.9579C444.346 61.9579 444.346 61.9579 444.346 61.9579L428.721 62.9195C419.735 63.4709 411.551 68.3239 406.75 75.9498L391.009 100.923L417.137 157.515C422.918 170.009 434.132 179.142 447.53 182.234C467.437 186.84 485.658 191.287 498.363 194.389C503.727 195.698 508.108 196.767 511.217 197.507C511.24 197.2 511.268 196.772 511.292 196.243C511.343 195.096 511.376 193.475 511.3 191.584C511.149 187.795 510.565 182.953 508.849 178.666L508.845 178.655L477.062 85.5565L477.061 85.5519C472.316 70.6858 459.852 61.0115 444.346 61.9579ZM511.648 198.104L512.126 198.154L512.069 198.698L511.538 198.572C508.394 197.827 503.808 196.708 498.119 195.319C485.416 192.218 467.217 187.776 447.314 183.171C433.626 180.012 422.171 170.682 416.266 157.919L389.918 100.852L405.938 75.4372C410.903 67.5494 419.368 62.5301 428.663 61.9597C428.663 61.9597 428.663 61.9597 428.663 61.9597L444.287 60.9981C460.284 60.0216 473.112 70.0254 477.974 85.2542C477.974 85.2559 477.975 85.2575 477.976 85.2592L509.745 178.32C511.516 182.749 512.107 187.71 512.26 191.546C512.337 193.469 512.304 195.118 512.251 196.286C512.225 196.871 512.194 197.336 512.169 197.655C512.157 197.815 512.146 197.939 512.138 198.023C512.137 198.044 512.135 198.062 512.133 198.078C512.132 198.094 512.13 198.108 512.129 198.119L512.127 198.144L512.126 198.154C512.126 198.154 512.126 198.154 511.648 198.104Z" fill="#FE5244"/>
<path fill-rule="evenodd" clip-rule="evenodd" d="M403.874 104.335C403.874 104.335 403.874 104.335 404.279 104.076C404.684 103.818 404.684 103.818 404.684 103.818L404.685 103.819L404.688 103.825C404.692 103.83 404.697 103.839 404.705 103.85C404.72 103.873 404.743 103.908 404.775 103.954C404.838 104.047 404.934 104.186 405.063 104.364C405.323 104.72 405.716 105.235 406.249 105.864C407.313 107.123 408.932 108.835 411.14 110.637C415.555 114.242 422.325 118.209 431.742 119.644L431.597 120.594C421.98 119.129 415.055 115.074 410.533 111.383C408.273 109.537 406.613 107.782 405.516 106.486C404.967 105.838 404.559 105.304 404.287 104.93C404.151 104.743 404.049 104.596 403.98 104.495C403.946 104.445 403.92 104.405 403.902 104.378C403.894 104.365 403.887 104.355 403.882 104.347L403.876 104.339L403.874 104.335Z" fill="#FE5244"/>
<path d="M415.549 80.1649C414.685 79.2354 413.164 79.4918 412.636 80.6297C412.043 81.9118 413.116 83.3382 414.509 83.1298C415.934 82.9215 416.526 81.2067 415.549 80.1649Z" fill="#FFCF2D"/>
<path fill-rule="evenodd" clip-rule="evenodd" d="M412.2 80.4271C412.87 78.984 414.8 78.6551 415.9 79.8368C417.141 81.1617 416.386 83.3407 414.578 83.6056C412.81 83.8695 411.446 82.0577 412.2 80.4271ZM413.071 80.832C412.64 81.7653 413.421 82.8064 414.437 82.6544L414.439 82.6542C415.48 82.502 415.91 81.2525 415.199 80.494L415.197 80.4927C414.568 79.8162 413.458 80.0001 413.071 80.832Z" fill="#FE5244"/>
<path d="M455.427 107.554C454.563 106.625 453.042 106.881 452.513 108.019C451.921 109.301 452.994 110.728 454.386 110.519C455.811 110.311 456.403 108.596 455.427 107.554Z" fill="#FFCF2D"/>
<path fill-rule="evenodd" clip-rule="evenodd" d="M452.078 107.816C452.748 106.373 454.678 106.044 455.778 107.226C457.019 108.551 456.264 110.73 454.456 110.995C452.688 111.259 451.325 109.447 452.078 107.816ZM452.949 108.221C452.518 109.154 453.299 110.195 454.315 110.043L454.317 110.043C455.358 109.891 455.788 108.641 455.077 107.883L455.075 107.882C454.446 107.205 453.336 107.389 452.949 108.221Z" fill="#FE5244"/>
<path d="M468.058 118.773C467.193 117.843 465.673 118.1 465.144 119.237C464.552 120.52 465.625 121.946 467.017 121.738C468.426 121.545 469.018 119.83 468.058 118.773Z" fill="#FFCF2D"/>
<path fill-rule="evenodd" clip-rule="evenodd" d="M464.708 119.035C465.378 117.591 467.309 117.263 468.409 118.445L468.413 118.449C469.621 119.78 468.892 121.964 467.085 122.213C465.317 122.476 463.955 120.665 464.708 119.035ZM465.58 119.44C465.149 120.373 465.93 121.414 466.946 121.262L466.952 121.261C467.96 121.124 468.413 119.883 467.704 119.098C467.075 118.424 465.966 118.609 465.58 119.44Z" fill="#FE5244"/>
<path d="M492.278 182.253C491.413 181.324 489.892 181.58 489.364 182.718C488.772 184 489.844 185.427 491.237 185.218C492.646 185.01 493.238 183.311 492.278 182.253Z" fill="#FFCF2D"/>
<path fill-rule="evenodd" clip-rule="evenodd" d="M488.929 182.516C489.599 181.072 491.53 180.744 492.629 181.926L492.633 181.93C493.846 183.267 493.104 185.428 491.308 185.694C489.539 185.959 488.175 184.147 488.929 182.516ZM489.8 182.921C489.369 183.854 490.15 184.895 491.166 184.743C492.186 184.592 492.629 183.359 491.924 182.579C491.295 181.905 490.186 182.09 489.8 182.921Z" fill="#FE5244"/>
<path d="M478.719 151.915C477.855 150.986 476.334 151.242 475.806 152.38C475.213 153.662 476.286 155.089 477.679 154.88C479.103 154.672 479.696 152.957 478.719 151.915Z" fill="#FFCF2D"/>
<path fill-rule="evenodd" clip-rule="evenodd" d="M475.37 152.177C476.04 150.734 477.97 150.405 479.07 151.587C480.311 152.912 479.556 155.091 477.748 155.356C475.98 155.62 474.616 153.808 475.37 152.177ZM476.241 152.582C475.81 153.515 476.591 154.557 477.607 154.405L477.609 154.404C478.65 154.252 479.08 153.003 478.369 152.244L478.367 152.243C477.738 151.566 476.628 151.75 476.241 152.582Z" fill="#FE5244"/>
<path d="M484.338 130.087C483.089 130.247 482.401 131.642 483.025 132.731C483.729 133.965 485.506 133.917 486.147 132.651C486.803 131.369 485.747 129.895 484.338 130.087Z" fill="#FFCF2D"/>
<path fill-rule="evenodd" clip-rule="evenodd" d="M486.575 132.87C485.762 134.475 483.503 134.537 482.608 132.971C481.815 131.585 482.687 129.816 484.275 129.611C486.065 129.368 487.408 131.241 486.575 132.87ZM485.72 132.432C486.198 131.497 485.429 130.424 484.403 130.564L484.399 130.564C483.491 130.681 482.987 131.699 483.442 132.492C483.956 133.393 485.25 133.36 485.719 132.434L485.72 132.432Z" fill="#FE5244"/>
<path d="M494.567 162.461C493.319 162.621 492.63 164.015 493.255 165.105C493.959 166.339 495.736 166.291 496.376 165.025C497.033 163.743 495.992 162.268 494.567 162.461Z" fill="#FFCF2D"/>
<path fill-rule="evenodd" clip-rule="evenodd" d="M496.804 165.243C495.991 166.849 493.732 166.911 492.838 165.344C492.044 163.958 492.916 162.189 494.505 161.984C496.313 161.741 497.636 163.617 496.804 165.243ZM495.949 164.806C496.429 163.868 495.671 162.797 494.631 162.937L494.628 162.938C493.72 163.054 493.217 164.073 493.671 164.866C494.185 165.767 495.48 165.733 495.948 164.808L495.949 164.806Z" fill="#FE5244"/>
<path d="M452.144 127.539C451.28 126.61 449.759 126.866 449.231 128.004C448.639 129.286 449.711 130.712 451.104 130.504C452.513 130.296 453.105 128.597 452.144 127.539Z" fill="#FFCF2D"/>
<path fill-rule="evenodd" clip-rule="evenodd" d="M448.796 127.801C449.466 126.358 451.397 126.029 452.496 127.212L452.5 127.216C453.714 128.552 452.972 130.714 451.175 130.98C449.406 131.244 448.043 129.432 448.796 127.801ZM449.667 128.206C449.236 129.14 450.017 130.181 451.033 130.029C452.053 129.878 452.496 128.644 451.792 127.865C451.162 127.191 450.053 127.375 449.667 128.206Z" fill="#FE5244"/>
<path d="M443.324 145.697C442.459 144.768 440.939 145.024 440.41 146.162C439.818 147.444 440.891 148.87 442.283 148.662C443.708 148.454 444.3 146.739 443.324 145.697Z" fill="#FFCF2D"/>
<path fill-rule="evenodd" clip-rule="evenodd" d="M439.975 145.959C440.646 144.516 442.576 144.187 443.676 145.369C444.917 146.694 444.162 148.872 442.354 149.137C440.585 149.401 439.222 147.59 439.975 145.959ZM440.847 146.364C440.416 147.297 441.197 148.338 442.213 148.186L442.215 148.186C443.255 148.034 443.685 146.784 442.974 146.026L442.973 146.024C442.344 145.348 441.233 145.532 440.847 146.364Z" fill="#FE5244"/>
<path d="M427.54 139.351C428.468 138.485 428.212 136.963 427.076 136.434C425.795 135.841 424.37 136.915 424.578 138.309C424.787 139.719 426.483 140.312 427.54 139.351Z" fill="#FFCF2D"/>
<path fill-rule="evenodd" clip-rule="evenodd" d="M424.103 138.38C423.839 136.609 425.648 135.243 427.277 135.997C428.719 136.668 429.048 138.602 427.867 139.702L427.863 139.706C426.528 140.921 424.369 140.178 424.103 138.38ZM426.873 136.87C425.941 136.439 424.901 137.221 425.053 138.238C425.204 139.259 426.436 139.702 427.214 138.997C427.888 138.367 427.703 137.257 426.873 136.87Z" fill="#FE5244"/>
<path d="M441.547 170.602C442.475 169.737 442.219 168.214 441.083 167.686C439.802 167.093 438.377 168.166 438.585 169.561C438.794 170.987 440.506 171.58 441.547 170.602Z" fill="#FFCF2D"/>
<path fill-rule="evenodd" clip-rule="evenodd" d="M438.11 169.631C437.847 167.86 439.656 166.495 441.284 167.249C442.726 167.92 443.055 169.853 441.875 170.954C440.551 172.196 438.375 171.441 438.11 169.631ZM440.881 168.122C439.948 167.691 438.908 168.472 439.06 169.49L439.061 169.491C439.213 170.533 440.461 170.964 441.218 170.252L441.22 170.251C441.895 169.621 441.712 168.509 440.881 168.122Z" fill="#FE5244"/>
<path d="M465.127 143.79C466.056 142.925 465.8 141.402 464.663 140.873C463.382 140.28 461.958 141.354 462.166 142.748C462.374 144.159 464.087 144.768 465.127 143.79Z" fill="#FFCF2D"/>
<path fill-rule="evenodd" clip-rule="evenodd" d="M461.691 142.819C461.427 141.048 463.236 139.682 464.865 140.437C466.307 141.107 466.636 143.04 465.456 144.141C464.129 145.387 461.955 144.607 461.691 142.819ZM464.462 141.309C463.529 140.878 462.489 141.66 462.641 142.677C462.793 143.709 464.045 144.147 464.799 143.439L464.801 143.438C465.476 142.808 465.293 141.696 464.462 141.309Z" fill="#FE5244"/>
<path d="M473.18 177.349C474.109 176.484 473.852 174.962 472.716 174.433C471.435 173.84 470.01 174.913 470.219 176.308C470.411 177.734 472.124 178.327 473.18 177.349Z" fill="#FFCF2D"/>
<path fill-rule="evenodd" clip-rule="evenodd" d="M469.743 176.375C469.482 174.606 471.29 173.242 472.918 173.996C474.36 174.667 474.689 176.6 473.508 177.701L473.507 177.702C472.175 178.935 469.992 178.198 469.743 176.375ZM472.514 174.869C471.582 174.438 470.542 175.219 470.694 176.237C470.694 176.239 470.695 176.241 470.695 176.243C470.833 177.271 472.073 177.718 472.854 176.997C473.529 176.367 473.345 175.256 472.514 174.869Z" fill="#FE5244"/>
<path d="M424.898 109.381C424.033 108.452 422.513 108.708 421.984 109.846C421.392 111.128 422.465 112.555 423.857 112.346C425.282 112.138 425.874 110.423 424.898 109.381Z" fill="#FFCF2D"/>
<path fill-rule="evenodd" clip-rule="evenodd" d="M421.55 109.643C422.22 108.2 424.15 107.871 425.25 109.053C426.491 110.378 425.736 112.556 423.928 112.821C422.16 113.085 420.796 111.274 421.55 109.643ZM422.421 110.048C421.99 110.981 422.771 112.022 423.787 111.87L423.789 111.87C424.83 111.718 425.259 110.468 424.549 109.71L424.547 109.709C423.918 109.032 422.807 109.216 422.421 110.048Z" fill="#FE5244"/>
<path d="M427.764 67.8082C426.899 66.8786 425.378 67.1351 424.85 68.2729C424.258 69.5551 425.33 70.9814 426.723 70.7731C428.148 70.5647 428.74 68.8499 427.764 67.8082Z" fill="#FFCF2D"/>
<path fill-rule="evenodd" clip-rule="evenodd" d="M424.415 68.0705C425.085 66.6273 427.015 66.2985 428.115 67.4801C429.356 68.805 428.601 70.984 426.793 71.2489C425.025 71.5129 423.661 69.7011 424.415 68.0705ZM425.286 68.4754C424.855 69.4087 425.636 70.4498 426.652 70.2978L426.654 70.2975C427.694 70.1454 428.124 68.8958 427.413 68.1374L427.412 68.136C426.783 67.4595 425.672 67.6435 425.286 68.4754Z" fill="#FE5244"/>
<path d="M455.427 67.8082C454.563 66.8786 453.042 67.1351 452.513 68.2729C451.921 69.5551 452.994 70.9814 454.386 70.7731C455.811 70.5647 456.403 68.8499 455.427 67.8082Z" fill="#FFCF2D"/>
<path fill-rule="evenodd" clip-rule="evenodd" d="M452.078 68.0705C452.748 66.6273 454.678 66.2984 455.778 67.4801C457.019 68.805 456.264 70.984 454.456 71.2489C452.688 71.5129 451.325 69.7011 452.078 68.0705ZM452.949 68.4754C452.518 69.4087 453.299 70.4498 454.315 70.2978L454.317 70.2975C455.358 70.1454 455.788 68.8958 455.077 68.1374L455.075 68.136C454.446 67.4595 453.336 67.6435 452.949 68.4754Z" fill="#FE5244"/>
<path d="M455.474 85.7579C454.306 86.2227 453.97 87.7292 454.85 88.6427C455.827 89.6523 457.539 89.1876 457.86 87.8093C458.18 86.415 456.803 85.229 455.474 85.7579Z" fill="#FFCF2D"/>
<path fill-rule="evenodd" clip-rule="evenodd" d="M455.297 85.3113C456.987 84.639 458.734 86.1464 458.328 87.9173L458.328 87.9185C457.92 89.6707 455.744 90.2582 454.505 88.9774C453.385 87.8153 453.814 85.9011 455.297 85.3113ZM457.392 87.7012C457.625 86.6838 456.62 85.8198 455.652 86.2049C454.798 86.5447 454.555 87.6438 455.195 88.3088C455.91 89.0467 457.158 88.7049 457.392 87.7012Z" fill="#FE5244"/>
<path d="M439.754 75.533C438.537 75.8855 438.073 77.3439 438.841 78.3376C439.722 79.4434 441.466 79.1389 441.915 77.8087C442.379 76.4465 441.114 75.1323 439.754 75.533Z" fill="#FFCF2D"/>
<path fill-rule="evenodd" clip-rule="evenodd" d="M439.62 75.0715C441.355 74.5612 442.958 76.2346 442.37 77.9633C441.799 79.6569 439.581 80.0377 438.466 78.6374C438.465 78.6356 438.463 78.6338 438.462 78.632C437.488 77.3724 438.075 75.5197 439.62 75.0715ZM441.461 77.6535C441.8 76.6584 440.875 75.7042 439.89 75.9943L439.888 75.9949C439 76.252 438.66 77.3133 439.219 78.0406C439.866 78.8485 441.135 78.6201 441.46 77.6551L441.461 77.6535Z" fill="#FE5244"/>
<path d="M437.433 119.927C436.184 120.071 435.48 121.449 436.088 122.555C436.777 123.789 438.554 123.773 439.21 122.523C439.883 121.257 438.858 119.767 437.433 119.927Z" fill="#FFCF2D"/>
<path fill-rule="evenodd" clip-rule="evenodd" d="M439.634 122.748C440.49 121.135 439.181 119.246 437.379 119.449L437.378 119.449C435.786 119.633 434.896 121.385 435.667 122.787L435.669 122.789C436.541 124.353 438.798 124.338 439.634 122.748ZM437.487 120.404C438.534 120.287 439.274 121.378 438.785 122.297L438.784 122.299C438.308 123.208 437.013 123.225 436.508 122.322C436.064 121.513 436.582 120.509 437.487 120.404Z" fill="#FE5244"/>
<path d="M423.714 153.31C422.465 153.454 421.761 154.832 422.369 155.938C423.057 157.172 424.834 157.156 425.491 155.906C426.163 154.64 425.139 153.15 423.714 153.31Z" fill="#FFCF2D"/>
<path fill-rule="evenodd" clip-rule="evenodd" d="M425.915 156.131C426.771 154.518 425.463 152.629 423.66 152.832L423.659 152.832C422.067 153.016 421.177 154.768 421.948 156.17L421.95 156.173C422.822 157.736 425.079 157.721 425.915 156.131ZM423.768 153.787C424.815 153.67 425.555 154.761 425.067 155.68L425.066 155.682C424.589 156.591 423.294 156.608 422.789 155.705C422.345 154.896 422.863 153.892 423.768 153.787Z" fill="#FE5244"/>
<path d="M428.324 88.7712C427.107 89.1238 426.643 90.5822 427.411 91.5759C428.292 92.6817 430.037 92.3772 430.485 91.047C430.949 89.7007 429.701 88.3866 428.324 88.7712Z" fill="#FFCF2D"/>
<path fill-rule="evenodd" clip-rule="evenodd" d="M430.94 91.2022C431.531 89.4837 429.938 87.8212 428.195 88.308L428.191 88.3093C426.646 88.757 426.058 90.6102 427.032 91.8701C427.033 91.8719 427.035 91.8737 427.036 91.8755C428.151 93.2756 430.368 92.8951 430.94 91.2022ZM428.456 89.2336C429.465 88.9534 430.367 89.9174 430.031 90.89L430.03 90.8932C429.705 91.8582 428.436 92.0866 427.789 91.2787C427.23 90.552 427.57 89.4919 428.456 89.2336Z" fill="#FE5244"/>
<path d="M441.579 97.7461C440.362 98.0987 439.898 99.5571 440.666 100.551C441.547 101.657 443.292 101.352 443.74 100.022C444.204 98.6596 442.956 97.3454 441.579 97.7461Z" fill="#FFCF2D"/>
<path fill-rule="evenodd" clip-rule="evenodd" d="M441.446 97.284C443.198 96.7742 444.783 98.4487 444.195 100.176C443.624 101.87 441.406 102.25 440.291 100.85C440.29 100.848 440.289 100.847 440.287 100.845C439.313 99.585 439.901 97.7319 441.446 97.284ZM443.286 99.8663C443.626 98.8695 442.714 97.9163 441.713 98.2075C440.826 98.4646 440.485 99.5261 441.045 100.253C441.691 101.061 442.96 100.833 443.285 99.8679L443.286 99.8663Z" fill="#FE5244"/>
<path d="M412.877 97.3611C413.678 96.3835 413.245 94.9091 412.029 94.5405C410.684 94.1238 409.403 95.3738 409.803 96.7201C410.204 98.0983 411.965 98.4669 412.877 97.3611Z" fill="#FFCF2D"/>
<path fill-rule="evenodd" clip-rule="evenodd" d="M412.168 94.0808C413.717 94.5511 414.261 96.4283 413.247 97.666L413.246 97.6674C412.087 99.0725 409.849 98.6012 409.341 96.8559C408.831 95.1344 410.466 93.5545 412.168 94.0808ZM411.885 94.9999C410.9 94.6944 409.974 95.6131 410.263 96.583L410.263 96.586C410.557 97.5957 411.84 97.8611 412.505 97.0557C413.091 96.3386 412.772 95.2683 411.888 95.0008L411.885 94.9999Z" fill="#FE5244"/>
<path d="M473.564 97.4093C474.365 96.4317 473.932 94.9572 472.716 94.5886C471.371 94.1719 470.09 95.422 470.491 96.7683C470.875 98.1465 472.652 98.5152 473.564 97.4093Z" fill="#FFCF2D"/>
<path fill-rule="evenodd" clip-rule="evenodd" d="M472.857 94.1289C474.406 94.5992 474.95 96.4764 473.936 97.7141L473.935 97.7155C472.78 99.1153 470.522 98.6561 470.03 96.9014C469.522 95.181 471.155 93.6028 472.857 94.1289ZM472.575 95.0479C471.589 94.7424 470.663 95.6611 470.952 96.6311C470.952 96.6337 470.953 96.6363 470.954 96.639C471.232 97.6373 472.525 97.9137 473.194 97.1038C473.781 96.3867 473.461 95.3164 472.577 95.0488L472.575 95.0479Z" fill="#FE5244"/>
<path d="M458.164 162.381C458.964 161.403 458.532 159.929 457.315 159.56C455.97 159.143 454.69 160.394 455.09 161.74C455.474 163.102 457.251 163.471 458.164 162.381Z" fill="#FFCF2D"/>
<path fill-rule="evenodd" clip-rule="evenodd" d="M457.456 159.101C459.005 159.571 459.549 161.448 458.535 162.686L458.532 162.69C457.378 164.068 455.122 163.613 454.629 161.874C454.12 160.153 455.754 158.574 457.456 159.101ZM457.173 160.02C456.187 159.714 455.262 160.633 455.55 161.603L455.552 161.609C455.829 162.591 457.123 162.872 457.794 162.074C458.379 161.357 458.059 160.288 457.176 160.02L457.173 160.02Z" fill="#FE5244"/>
<path d="M445.389 60.9482C445.037 60.9642 444.685 60.9802 444.317 60.9963L428.692 61.9578C424.706 62.1982 420.896 63.272 417.438 65.051L412.636 50.6592L434.039 34.9532L445.389 60.9482Z" fill="#E57281"/>
<path d="M417.374 64.8279C421.825 62.8086 425.379 59.2186 427.396 54.7633L435.176 37.5348L434.039 34.9385L412.636 50.6445L417.374 64.8279Z" fill="#9A3B82"/>
<path d="M435.415 36.3971C435.415 37.8875 434.807 39.2338 433.831 40.2114C432.854 41.189 431.509 41.798 430.021 41.798H425.314C423.457 49.0259 416.269 53.9781 408.537 52.6159L404.999 51.9909C401.125 51.3017 398.484 47.6797 399.028 43.7853L403.174 22.9989C403.895 18.5596 408.457 15.8511 412.699 17.3737L419.567 20.1302C423.281 21.4123 425.778 24.9061 425.778 28.8326V30.8359L430.021 30.9962C432.998 30.9962 435.415 33.4162 435.415 36.3971Z" fill="#E57281"/>
<path fill-rule="evenodd" clip-rule="evenodd" d="M431.173 34.1054C429.329 34.1054 427.843 35.5928 427.843 37.4389C427.843 37.6602 427.664 37.8396 427.443 37.8396C427.222 37.8396 427.043 37.6602 427.043 37.4389C427.043 35.1502 428.887 33.3041 431.173 33.3041C431.394 33.3041 431.573 33.4835 431.573 33.7047C431.573 33.926 431.394 34.1054 431.173 34.1054Z" fill="#9A3B82"/>
<path fill-rule="evenodd" clip-rule="evenodd" d="M405.079 27.3743C405.079 27.1531 405.258 26.9737 405.48 26.9737V27.3743C405.48 26.9737 405.479 26.9737 405.48 26.9737L405.482 26.9737L405.485 26.9737L405.495 26.9738C405.504 26.974 405.516 26.9742 405.53 26.9747C405.56 26.9756 405.602 26.9774 405.655 26.9808C405.761 26.9877 405.912 27.0013 406.099 27.028C406.473 27.0814 406.995 27.1877 407.594 27.3992C408.794 27.8228 410.306 28.6696 411.563 30.356C411.695 30.5334 411.659 30.7844 411.482 30.9168C411.305 31.0491 411.054 31.0126 410.922 30.8353C409.778 29.3004 408.409 28.5366 407.327 28.1549C406.786 27.9637 406.317 27.8686 405.986 27.8213C405.82 27.7977 405.69 27.7861 405.603 27.7805C405.559 27.7776 405.526 27.7763 405.505 27.7756C405.495 27.7753 405.487 27.7751 405.483 27.7751L405.479 27.775C405.479 27.775 405.479 27.775 405.479 27.775" fill="#9A3B82"/>
<path d="M407.714 33.3725C407.883 32.4407 407.668 31.6211 407.233 31.542C406.798 31.4629 406.308 32.1541 406.139 33.0859C405.97 34.0178 406.185 34.8373 406.62 34.9164C407.055 34.9956 407.545 34.3043 407.714 33.3725Z" fill="#9A3B82"/>
<path d="M430.021 30.9962C432.998 30.9962 435.415 33.4162 435.415 36.3971C435.415 36.4131 435.416 36.4448 435.416 36.4769C437.817 32.7748 443.708 23.3512 443.708 20.1619C443.708 15.8829 438.378 11.6038 432.855 13.559C433.223 13.2866 433.607 12.9981 434.007 12.6936C436.136 11.0269 437.257 9.77679 437.433 8.87931C437.497 8.55878 437.449 8.2703 437.289 8.04593C436.649 7.13242 435.944 6.73175 435.192 6.85997C434.087 7.03626 432.951 8.39851 431.814 10.8986C431.302 12.0365 430.902 13.1584 430.677 13.8475C430.229 11.1711 428.068 2.30845 418.783 3.6707C415.581 4.13547 414.077 5.46567 413.66 6.92408C411.003 4.84063 407.449 3.20593 404.504 4.7605C399.413 7.43692 400.037 11.8282 402.983 14.9373C400.197 14.8892 398.244 15.7066 398.244 18.0625C398.244 20.226 400.469 21.2678 403.527 21.6845C406.585 22.1011 410.507 21.8768 413.901 21.4921C416.318 21.2197 418.495 20.8831 419.888 20.6427C418.959 22.5499 418.591 24.1846 418.671 25.5629C418.815 28.4156 420.88 30.0984 423.794 30.6913C424.418 30.8195 425.091 30.8997 425.779 30.9317L430.021 30.9962ZM435.288 7.50102C435.336 7.485 435.384 7.485 435.448 7.485C435.896 7.485 436.328 7.80553 436.761 8.41454C436.793 8.47864 436.841 8.5748 436.809 8.75109C436.553 10.0492 433.271 12.5173 431.366 13.8155C432.118 11.6038 433.703 7.77347 435.288 7.50102Z" fill="#FFCF2D"/>
<path d="M385.645 153.759H283.19C280.661 153.759 279.14 150.97 280.485 148.839L294.124 127.395C295.901 124.607 298.959 122.924 302.257 122.924H371.606L385.645 153.759Z" fill="#E57281"/>
<path d="M304.514 122.94L312.678 109.478C313.158 108.676 314.039 108.18 314.967 108.18C317.065 108.18 318.345 110.471 317.257 112.266L310.773 122.94H304.514Z" fill="#FE5244"/>
<path d="M385.645 153.759H362.609C362.561 153.711 362.497 153.647 362.449 153.598C356.846 147.829 354.46 139.078 357.614 130.649L360.896 122.924H371.606L385.645 153.759Z" fill="#9A3B82"/>
<path d="M297.662 139.367H284.823C283.959 139.367 283.158 139.832 282.726 140.585L281.365 142.957C280.453 144.56 281.605 146.563 283.462 146.563H293.788C295.581 146.563 297.246 145.634 298.19 144.095L299.295 142.284C300.063 141.002 299.151 139.367 297.662 139.367Z" fill="#E57281"/>
<path d="M294.349 146.563H281.51C280.646 146.563 279.845 147.028 279.413 147.781L278.052 150.153C277.14 151.755 278.293 153.759 280.15 153.759H290.475C292.268 153.759 293.933 152.829 294.878 151.291L295.982 149.48C296.767 148.198 295.838 146.563 294.349 146.563Z" fill="#E57281"/>
<path d="M301.329 132.075H288.49C287.625 132.075 286.825 132.54 286.393 133.293L285.032 135.665C284.119 137.268 285.272 139.271 287.129 139.271H297.455C299.247 139.271 300.912 138.342 301.857 136.803L302.961 134.992C303.746 133.71 302.817 132.075 301.329 132.075Z" fill="#E57281"/>
<path fill-rule="evenodd" clip-rule="evenodd" d="M282.38 140.385C282.883 139.508 283.816 138.966 284.824 138.966H297.663C299.468 138.966 300.565 140.945 299.639 142.49L299.638 142.491L298.532 144.305C297.515 145.962 295.721 146.963 293.789 146.963H283.463C281.298 146.963 279.954 144.627 281.018 142.758L281.019 142.757L282.38 140.385ZM283.074 140.785C283.074 140.785 283.074 140.785 283.074 140.785L281.714 143.155C281.714 143.155 281.714 143.155 281.714 143.155C280.954 144.491 281.914 146.162 283.463 146.162H293.789C295.442 146.162 296.978 145.305 297.85 143.885C297.85 143.885 297.85 143.885 297.85 143.885L298.952 142.078C298.953 142.077 298.953 142.077 298.953 142.076C299.563 141.057 298.835 139.768 297.663 139.768H284.824C284.103 139.768 283.435 140.155 283.074 140.785Z" fill="#9A3B82"/>
<path fill-rule="evenodd" clip-rule="evenodd" d="M279.065 147.581C279.569 146.704 280.501 146.162 281.51 146.162H294.348C296.147 146.162 297.272 148.138 296.323 149.689L295.218 151.499L295.218 151.5C294.2 153.157 292.406 154.159 290.474 154.159H280.149C277.984 154.159 276.64 151.823 277.704 149.954L277.705 149.953L279.065 147.581ZM279.759 147.98C279.759 147.98 279.759 147.98 279.759 147.98L278.399 150.351C278.399 150.351 278.399 150.351 278.399 150.351C277.639 151.687 278.6 153.358 280.149 153.358H290.474C292.128 153.358 293.664 152.501 294.535 151.081C294.535 151.082 294.536 151.081 294.535 151.081L295.64 149.27C296.26 148.257 295.527 146.964 294.348 146.964H281.51C280.789 146.964 280.121 147.351 279.759 147.98Z" fill="#9A3B82"/>
<path fill-rule="evenodd" clip-rule="evenodd" d="M286.045 133.093C286.549 132.216 287.481 131.674 288.489 131.674H301.328C303.127 131.674 304.252 133.65 303.302 135.201L302.198 137.012L302.198 137.013C301.18 138.67 299.386 139.671 297.454 139.671H287.129C284.964 139.671 283.62 137.335 284.684 135.466L284.684 135.465L286.045 133.093ZM286.739 133.493C286.739 133.492 286.739 133.493 286.739 133.493L285.379 135.863C285.379 135.863 285.379 135.863 285.379 135.863C284.619 137.199 285.58 138.87 287.129 138.87H297.454C299.108 138.87 300.643 138.013 301.515 136.593C301.515 136.594 301.515 136.593 301.515 136.593L302.62 134.782C303.24 133.77 302.507 132.476 301.328 132.476H288.489C287.769 132.476 287.1 132.863 286.739 133.493Z" fill="#9A3B82"/>
<path d="M319.915 142.797C316.057 142.797 312.343 141.402 309.429 138.854L304.562 134.591H300.08L298.927 135.825C296.862 138.037 294.317 139.303 291.291 139.303H289.146C288.026 139.303 287.337 138.053 287.946 137.107L293.34 128.645H319.931V142.797H319.915Z" fill="#E57281"/>
<path fill-rule="evenodd" clip-rule="evenodd" d="M293.555 128.308C293.742 128.427 293.796 128.675 293.677 128.861L288.283 137.323L288.282 137.324C287.846 138.001 288.339 138.902 289.146 138.902H291.291C294.192 138.902 296.635 137.709 298.634 135.553L298.635 135.552L299.906 134.191H304.712L309.692 138.553C309.692 138.552 309.692 138.553 309.692 138.553M304.412 134.992L309.165 139.156C312.135 141.752 315.959 143.198 319.914 143.198C320.135 143.198 320.314 143.018 320.314 142.797C320.314 142.576 320.135 142.396 319.914 142.396C316.154 142.396 312.517 141.021 309.692 138.553M304.412 134.992H300.253L299.22 136.098C299.221 136.098 299.22 136.098 299.22 136.098C297.089 138.397 294.441 139.704 291.291 139.704H289.146C287.712 139.704 286.828 138.106 287.608 136.891C287.608 136.892 287.608 136.891 287.608 136.891L293.003 128.43C293.122 128.243 293.369 128.189 293.555 128.308" fill="#9A3B82"/>
<path d="M428.004 123.789L403.559 151.13C398.42 156.884 391.072 160.169 383.356 160.169C368.116 160.169 357.567 144.944 362.913 130.648L391.953 62.3435L382.14 56.8464C380.747 55.7566 380.075 53.9777 380.379 52.2468L382.044 41.0122C382.556 38.5121 385.101 36.5569 387.583 35.9799L399.077 33.3836C400.053 33.1593 400.95 33.9926 400.79 34.9703L399.125 43.6406C398.468 47.8716 401.318 51.5256 405.544 52.2468C409.002 52.8398 411.435 56.3175 411.115 59.8113L403.287 108.692C403.271 108.724 411.291 121.241 428.004 123.789Z" fill="#E57281"/>
<path fill-rule="evenodd" clip-rule="evenodd" d="M409.319 71.0349C409.538 71.0686 409.688 71.2732 409.654 71.4919L400.209 132.889C400.175 133.108 399.971 133.258 399.752 133.224C399.534 133.191 399.384 132.986 399.418 132.767L408.863 71.3699C408.896 71.1512 409.101 71.0012 409.319 71.0349Z" fill="#9A3B82"/>
<path fill-rule="evenodd" clip-rule="evenodd" d="M389.692 41.4296C389.913 41.4367 390.086 41.6218 390.079 41.843L389.951 45.8164C389.951 45.8162 389.951 45.8166 389.951 45.8164C389.908 47.2887 390.783 48.5436 391.984 48.8928L406.68 51.8706C406.896 51.9145 407.036 52.1259 406.993 52.3428C406.949 52.5596 406.738 52.6999 406.521 52.656L391.794 49.672L391.779 49.6678C390.169 49.2099 389.099 47.5839 389.151 45.7928L389.151 45.7917L389.279 41.8171C389.286 41.596 389.471 41.4225 389.692 41.4296Z" fill="#9A3B82"/>
<path fill-rule="evenodd" clip-rule="evenodd" d="M398.905 33.3627C399.984 33.1042 400.978 34.0348 400.784 35.1364L399.264 43.8313C398.754 47.5055 401.245 50.9237 404.901 51.5787L416.659 53.1481C416.878 53.1774 417.032 53.3789 417.003 53.5982C416.974 53.8176 416.772 53.9717 416.553 53.9424L404.778 52.3707L404.77 52.3692C400.685 51.6426 397.898 47.8229 398.472 43.7136L398.473 43.7068L399.995 34.9971C400.089 34.4645 399.611 34.0171 399.09 34.1422L399.089 34.1425L387.081 36.9474C386.866 36.9977 386.651 36.8637 386.601 36.6483C386.55 36.4328 386.684 36.2173 386.899 36.167L398.903 33.363C398.904 33.3629 398.904 33.3628 398.905 33.3627Z" fill="#9A3B82"/>
<path fill-rule="evenodd" clip-rule="evenodd" d="M442.289 108.629L410.464 144.08L409.75 143.437L441.575 107.986L442.289 108.629Z" fill="#FE5244"/>
<path fill-rule="evenodd" clip-rule="evenodd" d="M391.889 62.3597C391.889 62.1385 392.068 61.9591 392.289 61.9591H397.908C398.129 61.9591 398.308 62.1385 398.308 62.3597C398.308 62.581 398.129 62.7604 397.908 62.7604H392.289C392.068 62.7604 391.889 62.581 391.889 62.3597Z" fill="#9A3B82"/>
<path fill-rule="evenodd" clip-rule="evenodd" d="M394.822 35.1882C395.396 35.579 395.821 36.2214 395.811 37.0269L395.699 45.3906C395.698 46.429 394.955 47.343 393.922 47.343H392.161C390.536 47.343 389.296 45.8677 389.296 44.1697V42.8876C389.296 42.6663 389.475 42.4869 389.696 42.4869C389.917 42.4869 390.096 42.6663 390.096 42.8876V44.1697C390.096 45.5168 391.065 46.5417 392.161 46.5417H393.922C394.425 46.5417 394.899 46.079 394.899 45.3877V45.3851L395.011 37.017C395.011 37.017 395.011 37.0169 395.011 37.017C395.017 36.5244 394.762 36.1169 394.372 35.8507C393.975 35.5802 393.465 35.477 393.024 35.5842C392.809 35.6365 392.593 35.5045 392.541 35.2895C392.489 35.0744 392.621 34.8578 392.835 34.8056C393.515 34.6403 394.254 34.8016 394.822 35.1882Z" fill="#9A3B82"/>
<path fill-rule="evenodd" clip-rule="evenodd" d="M395.41 42.4871C395.631 42.4871 395.811 42.6665 395.811 42.8878V44.1699C395.811 45.517 396.779 46.5418 397.876 46.5418H398.996C399.217 46.5418 399.397 46.7212 399.397 46.9425C399.397 47.1637 399.217 47.3431 398.996 47.3431H397.876C396.251 47.3431 395.01 45.8678 395.01 44.1699V42.8878C395.01 42.6665 395.189 42.4871 395.41 42.4871Z" fill="#9A3B82"/>
<path fill-rule="evenodd" clip-rule="evenodd" d="M519.832 399.919L501.246 245.071L502.2 244.956L520.786 399.804L519.832 399.919Z" fill="#66B0F0"/>
<path fill-rule="evenodd" clip-rule="evenodd" d="M402.105 399.804L420.691 244.956L421.645 245.071L403.059 399.919L402.105 399.804Z" fill="#66B0F0"/>
<path fill-rule="evenodd" clip-rule="evenodd" d="M513.921 347.167H408.953V346.205H513.921V347.167Z" fill="#66B0F0"/>
<path d="M410.458 245.494H511.472C512.817 245.494 513.905 244.405 513.905 243.058V239.757C513.905 238.411 512.817 237.321 511.472 237.321H410.458C409.113 237.321 408.025 238.411 408.025 239.757V243.058C408.025 244.405 409.113 245.494 410.458 245.494Z" fill="white"/>
<path fill-rule="evenodd" clip-rule="evenodd" d="M407.545 239.757C407.545 238.145 408.849 236.84 410.459 236.84H511.473C513.082 236.84 514.386 238.145 514.386 239.757V243.058C514.386 244.67 513.082 245.975 511.473 245.975H410.459C408.849 245.975 407.545 244.67 407.545 243.058V239.757ZM410.459 237.802C409.379 237.802 408.506 238.676 408.506 239.757V243.058C408.506 244.139 409.379 245.014 410.459 245.014H511.473C512.552 245.014 513.426 244.139 513.426 243.058V239.757C513.426 238.676 512.552 237.802 511.473 237.802H410.459Z" fill="#FFCF2D"/>
<path d="M242.369 128.308L226.905 160.169H180.176L198.954 128.308H242.369Z" fill="white"/>
<path fill-rule="evenodd" clip-rule="evenodd" d="M198.726 127.908H243.009L227.156 160.57H179.476L198.726 127.908ZM199.183 128.709L180.877 159.768H226.655L241.73 128.709H199.183Z" fill="#3FB1B5"/>
<path fill-rule="evenodd" clip-rule="evenodd" d="M213.724 134.541C214.08 134.769 214.434 134.995 214.787 135.21C215.358 135.558 216.035 135.668 216.816 135.608C217.602 135.546 218.468 135.314 219.393 135C219.97 134.805 220.551 134.585 221.142 134.362C221.505 134.224 221.872 134.085 222.245 133.95C223.209 133.598 224.19 133.277 225.137 133.107C227.69 132.637 229.524 133.312 230.721 134.122C231.316 134.525 231.749 134.957 232.034 135.291C232.177 135.458 232.283 135.601 232.355 135.704C232.391 135.755 232.419 135.797 232.437 135.827C232.447 135.842 232.454 135.854 232.46 135.862C232.462 135.867 232.464 135.87 232.466 135.873L232.468 135.877L232.469 135.878C232.469 135.878 232.469 135.879 232.124 136.081C231.779 136.283 231.779 136.284 231.779 136.284L231.776 136.28C231.775 136.278 231.774 136.276 231.772 136.273C231.77 136.269 231.766 136.264 231.763 136.258C231.749 136.237 231.728 136.205 231.699 136.163C231.641 136.079 231.55 135.957 231.426 135.812C231.178 135.522 230.797 135.141 230.273 134.786C229.233 134.082 227.609 133.467 225.281 133.895L225.279 133.895C224.402 134.053 223.473 134.355 222.518 134.703C222.166 134.831 221.808 134.966 221.447 135.103C220.844 135.331 220.236 135.561 219.65 135.759C218.705 136.079 217.764 136.337 216.878 136.406C215.988 136.476 215.128 136.356 214.371 135.895C213.982 135.658 213.607 135.418 213.239 135.182C212.312 134.589 211.43 134.024 210.487 133.614C209.2 133.055 207.847 132.811 206.234 133.262C204.55 133.732 203.082 134.419 202.033 134.991C201.509 135.276 201.092 135.531 200.807 135.715C200.664 135.806 200.554 135.88 200.481 135.93C200.444 135.955 200.417 135.974 200.399 135.987C200.39 135.993 200.383 135.998 200.379 136.001L200.374 136.004L200.373 136.005C200.374 136.005 200.374 136.005 200.139 135.68C199.904 135.356 199.904 135.356 199.905 135.356L199.905 135.355L199.907 135.354L199.914 135.349C199.919 135.345 199.928 135.339 199.938 135.332C199.959 135.317 199.989 135.296 200.029 135.269C200.108 135.214 200.225 135.136 200.374 135.04C200.674 134.848 201.108 134.582 201.651 134.287C202.735 133.696 204.26 132.981 206.019 132.49C207.847 131.979 209.391 132.264 210.806 132.879C211.812 133.316 212.777 133.934 213.724 134.541Z" fill="#3FB1B5"/>
<path fill-rule="evenodd" clip-rule="evenodd" d="M212.124 139.509C212.48 139.737 212.834 139.963 213.186 140.178C213.757 140.526 214.434 140.636 215.216 140.576C216.002 140.514 216.868 140.282 217.792 139.968C218.369 139.773 218.95 139.553 219.541 139.33C219.904 139.192 220.271 139.053 220.644 138.918C221.608 138.566 222.589 138.245 223.536 138.075C226.09 137.605 227.924 138.28 229.121 139.091C229.715 139.493 230.148 139.926 230.433 140.259C230.576 140.426 230.683 140.569 230.755 140.672C230.791 140.724 230.818 140.765 230.837 140.795C230.846 140.81 230.854 140.822 230.859 140.83C230.862 140.835 230.864 140.838 230.865 140.841L230.868 140.845L230.868 140.846C230.868 140.846 230.869 140.847 230.523 141.049C230.178 141.251 230.178 141.252 230.178 141.252L230.176 141.248C230.175 141.246 230.173 141.244 230.172 141.241C230.169 141.237 230.166 141.232 230.162 141.226C230.149 141.205 230.128 141.173 230.098 141.131C230.04 141.047 229.95 140.925 229.825 140.78C229.577 140.49 229.196 140.109 228.672 139.754C227.632 139.05 226.009 138.435 223.68 138.863L223.679 138.863C222.801 139.021 221.873 139.323 220.918 139.671C220.566 139.799 220.207 139.935 219.847 140.071C219.243 140.299 218.636 140.529 218.049 140.727C217.105 141.047 216.164 141.305 215.278 141.374C214.388 141.444 213.528 141.324 212.77 140.863C212.381 140.626 212.006 140.386 211.639 140.15C210.712 139.557 209.83 138.992 208.887 138.582C207.6 138.023 206.246 137.779 204.633 138.23C202.95 138.7 201.481 139.387 200.432 139.959C199.909 140.244 199.491 140.499 199.206 140.683C199.063 140.774 198.954 140.848 198.88 140.898C198.844 140.923 198.816 140.942 198.798 140.955C198.789 140.961 198.782 140.966 198.778 140.969L198.774 140.972L198.773 140.973C198.773 140.973 198.773 140.973 198.538 140.648C198.304 140.324 198.304 140.324 198.304 140.324L198.305 140.323L198.307 140.322L198.313 140.317C198.319 140.313 198.327 140.307 198.337 140.3C198.358 140.285 198.389 140.264 198.428 140.237C198.508 140.182 198.624 140.104 198.774 140.008C199.073 139.816 199.507 139.55 200.05 139.255C201.134 138.664 202.66 137.949 204.418 137.458C206.247 136.947 207.791 137.232 209.205 137.847C210.211 138.284 211.176 138.902 212.124 139.509Z" fill="#3FB1B5"/>
<path d="M259.947 271.296C259.947 275.575 248.084 279.037 233.228 279.037C218.372 279.037 206.862 275.575 206.862 271.296C206.862 267.017 218.372 263.555 233.228 263.555C248.084 263.555 259.947 267.033 259.947 271.296Z" fill="#FE5244"/>
<path d="M253.111 266.088V321.379L251.43 313.398C249.621 304.808 242.049 298.669 233.276 298.669C230.635 298.669 228.042 299.23 225.688 300.288C225.608 300.32 225.528 300.368 225.432 300.4L215.843 265.382C220.534 264.245 226.601 263.555 233.228 263.555C241.105 263.555 248.196 264.533 253.111 266.088Z" fill="#A0505A"/>
<path d="M253.111 266.087V276.504C248.196 278.058 241.105 279.036 233.228 279.036C228.122 279.036 223.351 278.619 219.269 277.914L215.843 265.397C220.534 264.259 226.601 263.57 233.228 263.57C241.105 263.554 248.196 264.532 253.111 266.087Z" fill="#73325A"/>
<path d="M251.925 319.76C252.358 319.889 256.424 321.026 260.026 321.026C261.979 321.026 263.788 320.69 264.812 319.664C265.693 318.783 265.901 317.501 265.437 315.882C265.021 314.44 264.22 313.542 263.051 313.221C260.906 312.645 257.929 314.247 255.575 315.93C259.241 311.475 262.859 305.817 261.515 302.115C261.034 300.801 259.946 299.92 258.585 299.759C257.448 299.631 256.392 300.032 255.896 300.785C253.59 304.295 251.701 318.703 251.621 319.312L251.925 319.76ZM256.568 301.234C256.856 300.801 257.464 300.545 258.169 300.545C258.281 300.545 258.393 300.545 258.505 300.561C259.017 300.625 260.25 300.913 260.778 302.388C261.13 303.365 261.259 305.16 259.834 308.173C258.489 311.026 256.056 314.375 252.598 318.174C253.11 314.52 254.743 304.006 256.568 301.234ZM264.252 319.103C263.196 320.161 260.794 320.481 257.288 320.033C255.447 319.792 253.734 319.408 252.822 319.167C253.51 318.558 254.791 317.452 256.28 316.427C259.129 314.456 261.403 313.606 262.859 314.007C263.74 314.247 264.332 314.936 264.684 316.106C265.069 317.452 264.924 318.43 264.252 319.103Z" fill="#FFCF2D"/>
<path d="M219.43 304.888L215.732 309.039C211.538 313.75 210.849 320.61 214.035 326.059L230.316 354.009C233.502 359.474 239.345 362.823 245.652 362.823H252.392C257.274 362.823 260.908 358.336 259.9 353.56L251.415 313.414C249.606 304.824 242.034 298.686 233.261 298.686C227.995 298.669 222.952 300.929 219.43 304.888Z" fill="white"/>
<path fill-rule="evenodd" clip-rule="evenodd" d="M219.13 304.621C222.728 300.578 227.879 298.269 233.261 298.285C242.222 298.285 249.957 304.555 251.806 313.331M251.806 313.331L260.29 353.477C261.351 358.502 257.527 363.224 252.391 363.224H245.651C239.202 363.224 233.227 359.799 229.969 354.211L213.689 326.261C210.415 320.662 211.123 313.613 215.432 308.772L219.13 304.621M233.259 299.086C228.108 299.07 223.174 301.281 219.728 305.154L216.03 309.305C216.03 309.305 216.03 309.305 216.03 309.305C211.951 313.887 211.282 320.558 214.379 325.856L230.66 353.807C230.66 353.807 230.66 353.807 230.66 353.807C233.774 359.149 239.486 362.423 245.651 362.423H252.391C257.019 362.423 260.463 358.169 259.507 353.643L251.023 313.497C249.253 305.092 241.844 299.086 233.26 299.086L233.259 299.086Z" fill="#3FB1B5"/>
<path d="M232.028 316.972L253.048 357.743C254.04 359.586 255.273 360.772 256.682 361.525C255.465 362.343 253.992 362.839 252.391 362.839H245.652C239.328 362.839 233.485 359.474 230.315 354.025L214.035 326.059C213.379 324.921 212.882 323.735 212.546 322.501C210.241 313.927 219.99 307.195 227.306 312.228C228.971 313.366 230.604 314.904 232.028 316.972Z" fill="#3FB1B5"/>
<path d="M232.076 317.068H212.674C212.77 316.763 212.882 316.475 213.01 316.202H231.452C231.644 316.459 231.836 316.715 232.028 316.988L232.076 317.068Z" fill="white"/>
<path d="M234.925 322.581H212.577C212.577 322.549 212.561 322.517 212.561 322.501C212.497 322.244 212.433 321.972 212.385 321.715H234.493L234.925 322.581Z" fill="white"/>
<path d="M237.775 328.11H215.235L214.723 327.229H237.327L237.775 328.11Z" fill="white"/>
<path d="M240.625 333.639H218.453L217.94 332.758H240.176L240.625 333.639Z" fill="white"/>
<path d="M243.474 339.152H221.67L221.158 338.287H243.025L243.474 339.152Z" fill="white"/>
<path d="M246.323 344.681H224.888L224.376 343.8H245.859L246.323 344.681Z" fill="white"/>
<path d="M249.173 350.21H228.106L227.593 349.329H248.709L249.173 350.21Z" fill="white"/>
<path d="M252.006 355.724H231.451C231.243 355.435 231.035 355.147 230.843 354.858H251.558L252.006 355.724Z" fill="white"/>
<path d="M256.217 361.253H238.351C237.775 360.996 237.214 360.708 236.67 360.387H255.064C255.432 360.708 255.816 360.996 256.217 361.253Z" fill="white"/>
<path d="M194.375 270.159C194.231 274.39 182.241 277.819 167.481 277.819C152.721 277.819 140.731 274.406 140.587 270.159V236.84H194.375V270.159Z" fill="#73325A"/>
<path d="M190.805 275.688L189.956 318.286V317.164C189.956 307.244 181.92 299.199 172.011 299.199H170.922C165.864 299.199 161.301 301.17 157.923 304.343L154.113 278.556C158.051 279.214 162.614 279.582 167.464 279.582C177.454 279.566 186.146 277.996 190.805 275.688Z" fill="#A0505A"/>
<path d="M190.804 275.688L190.724 279.646C184.768 283.877 166.375 289.086 155.585 288.397L154.128 278.54C158.066 279.181 162.629 279.566 167.479 279.566C177.453 279.566 186.145 277.996 190.804 275.688Z" fill="#73325A"/>
<path d="M172.829 363.352H175.807C183.619 363.352 189.958 357.006 189.958 349.185V317.164C189.958 307.244 181.922 299.198 172.013 299.198H170.924C159.398 299.198 150.513 309.375 152.066 320.818L155.828 348.512C156.997 357.006 164.248 363.352 172.829 363.352Z" fill="white"/>
<path fill-rule="evenodd" clip-rule="evenodd" d="M151.669 320.872C150.083 309.189 159.155 298.798 170.923 298.798H172.012C182.142 298.798 190.358 307.022 190.358 317.164V349.185C190.358 357.227 183.839 363.753 175.806 363.753H172.829C164.048 363.753 156.627 357.258 155.431 348.567L151.669 320.872ZM152.462 320.764L156.224 348.457C157.365 356.753 164.448 362.952 172.829 362.952H175.806C183.397 362.952 189.557 356.785 189.557 349.185V317.164C189.557 307.465 181.7 299.599 172.012 299.599H170.923C159.64 299.599 150.942 309.562 152.462 320.764Z" fill="#3FB1B5"/>
<path d="M185.508 359.49C182.979 361.878 179.553 363.352 175.807 363.352H172.829C164.248 363.352 156.997 357.006 155.844 348.512L152.082 320.818C152.018 320.289 151.954 319.76 151.938 319.247C152.899 313.109 158.198 308.414 164.601 308.414C167.755 308.414 170.668 309.567 172.926 311.491C175.183 313.414 176.768 316.122 177.264 319.247L182.211 353.047C182.579 355.563 183.763 357.807 185.508 359.49Z" fill="#3FB1B5"/>
<path d="M175.773 314.969H153.409C153.57 314.664 153.762 314.376 153.954 314.103H175.245C175.437 314.376 175.613 314.664 175.773 314.969Z" fill="white"/>
<path d="M177.439 320.482H152.034C152.002 320.193 151.97 319.905 151.954 319.616H177.311L177.439 320.482Z" fill="white"/>
<path d="M178.255 326.011H152.786L152.657 325.146H178.127L178.255 326.011Z" fill="white"/>
<path d="M179.055 331.54H153.538L153.409 330.659H178.927L179.055 331.54Z" fill="white"/>
<path d="M179.872 337.053H154.29L154.162 336.188H179.744L179.872 337.053Z" fill="white"/>
<path d="M180.672 342.583H155.027L154.915 341.717H180.544L180.672 342.583Z" fill="white"/>
<path d="M181.488 348.111H155.778L155.666 347.23H181.36L181.488 348.111Z" fill="white"/>
<path d="M182.305 353.624H157.364C157.219 353.336 157.091 353.047 156.979 352.759H182.161L182.209 353.047C182.241 353.24 182.273 353.432 182.305 353.624Z" fill="white"/>
<path d="M185.17 359.154H161.59C161.269 358.881 160.949 358.577 160.661 358.288H184.434C184.658 358.593 184.914 358.881 185.17 359.154Z" fill="white"/>
<path d="M206.014 96.9763V123.965C204.845 120.904 195.592 121.336 185.411 125.199C176.686 128.516 170.139 133.068 169.178 136.225V98.2424C169.178 86.9437 175.214 76.847 184.483 71.3339C196.521 73.4334 206.014 83.9307 206.014 96.9763Z" fill="#FFCF2D"/>
<path d="M168.474 72.552C160.277 78.2574 155.059 87.7291 155.059 98.2424V129.574H109.482L115.774 102.457C118.447 90.9023 126.803 81.6871 137.689 77.7606L168.474 72.552Z" fill="#FFCF2D"/>
<path d="M260.651 206.661V269.565C260.651 265.286 248.084 261.824 233.228 261.824C218.372 261.824 206.334 265.286 206.334 269.565V239.419C206.334 238.009 205.181 236.855 203.772 236.855H122.065C97.4916 236.855 79.3219 213.953 84.8768 189.994L104.599 104.925C107.737 91.3508 118.719 81.0137 132.438 78.6739L137.689 77.7764C126.803 81.7029 118.447 90.9181 115.773 102.473L109.482 129.59H155.058L155.059 98.2424C155.059 87.7291 160.293 78.2414 168.474 72.552L175.677 71.3337C177.166 71.0773 178.623 70.9651 180.08 70.9651C180.272 70.9651 180.448 70.9651 180.64 70.9651C180.816 70.9651 180.992 70.9811 181.152 70.9811C181.184 70.9811 181.216 70.9811 181.248 70.9811C181.376 70.9811 181.52 70.9972 181.648 70.9972C181.664 70.9972 181.696 70.9972 181.712 70.9972C181.792 70.9972 181.873 71.0132 181.937 71.0132C182.081 71.0292 182.209 71.0292 182.353 71.0452C182.513 71.0613 182.689 71.0773 182.849 71.0933C183.009 71.1094 183.153 71.1254 183.313 71.1414C183.345 71.1414 183.377 71.1574 183.425 71.1574C183.585 71.1735 183.762 71.2055 183.922 71.2215C183.938 71.2215 183.954 71.2215 183.954 71.2215C184.13 71.2536 184.306 71.2696 184.482 71.3017C175.213 76.8148 169.178 86.9115 169.178 98.2101V175.217H229.274C246.595 175.249 260.651 189.305 260.651 206.661Z" fill="#FE5244"/>
<path fill-rule="evenodd" clip-rule="evenodd" d="M169.908 71.5721C170.06 71.7901 170.006 72.0897 169.788 72.2413C161.699 77.8718 155.522 87.9106 155.522 98.2422V130.055H108.861L115.289 102.349M169.908 71.5721C169.757 71.3541 169.457 71.3002 169.24 71.4518L169.908 71.5721ZM169.24 71.4518C160.936 77.2322 154.562 87.547 154.562 98.2422L169.24 71.4518Z" fill="white"/>
<path fill-rule="evenodd" clip-rule="evenodd" d="M215.545 205.012C215.747 205.183 215.773 205.486 215.602 205.689C209.928 212.413 206.814 220.942 206.814 229.755C206.814 230.021 206.599 230.236 206.334 230.236C206.069 230.236 205.854 230.021 205.854 229.755C205.854 220.715 209.047 211.967 214.868 205.069C215.039 204.866 215.342 204.84 215.545 205.012Z" fill="white"/>
<path d="M139.754 226.566C139.674 226.566 139.594 226.55 139.53 226.502L137.417 225.348C137.177 225.22 137.097 224.931 137.225 224.691C137.353 224.451 137.641 224.371 137.881 224.499L139.994 225.653C140.234 225.781 140.314 226.069 140.186 226.31C140.09 226.47 139.93 226.566 139.754 226.566ZM141.867 226.021C141.691 226.021 141.531 225.925 141.451 225.765C141.323 225.524 141.403 225.236 141.643 225.108L143.756 223.954C143.996 223.826 144.285 223.922 144.413 224.146C144.541 224.387 144.461 224.675 144.221 224.803L142.107 225.957C142.027 225.989 141.947 226.021 141.867 226.021ZM135.528 224.274C135.448 224.274 135.368 224.258 135.304 224.21L133.191 223.056C132.951 222.928 132.871 222.64 132.999 222.399C133.127 222.159 133.415 222.079 133.655 222.207L135.768 223.361C136.008 223.489 136.088 223.778 135.96 224.018C135.864 224.178 135.704 224.274 135.528 224.274ZM146.078 223.713C145.901 223.713 145.741 223.617 145.661 223.457C145.533 223.217 145.613 222.928 145.853 222.8L147.967 221.646C148.335 221.454 148.671 221.229 149.007 220.989C149.215 220.829 149.519 220.877 149.679 221.085C149.84 221.293 149.792 221.598 149.583 221.758C149.215 222.031 148.831 222.271 148.431 222.495L146.318 223.649C146.238 223.697 146.158 223.713 146.078 223.713ZM131.35 221.902C131.254 221.902 131.158 221.87 131.062 221.806C130.389 221.309 129.765 220.733 129.237 220.075C129.06 219.867 129.092 219.563 129.301 219.402C129.509 219.226 129.813 219.258 129.973 219.466C130.453 220.059 131.014 220.572 131.622 221.021C131.83 221.181 131.878 221.486 131.734 221.694C131.654 221.838 131.51 221.902 131.35 221.902ZM151.024 220.22C150.912 220.22 150.816 220.188 150.72 220.108C150.512 219.947 150.48 219.643 150.656 219.434C151.136 218.841 151.536 218.2 151.857 217.495C151.969 217.255 152.257 217.143 152.497 217.255C152.737 217.367 152.849 217.655 152.737 217.896C152.385 218.665 151.937 219.386 151.408 220.027C151.296 220.156 151.168 220.22 151.024 220.22ZM128.34 218.232C128.164 218.232 127.988 218.136 127.908 217.96C127.556 217.191 127.3 216.389 127.139 215.556C127.091 215.3 127.268 215.043 127.524 214.995C127.78 214.947 128.036 215.123 128.084 215.38C128.228 216.133 128.452 216.854 128.772 217.543C128.884 217.784 128.772 218.072 128.532 218.184C128.468 218.216 128.404 218.232 128.34 218.232ZM153.009 215.893C152.977 215.893 152.945 215.893 152.929 215.893C152.673 215.844 152.497 215.588 152.545 215.332C152.641 214.803 152.689 214.274 152.689 213.745V213.024C152.689 212.751 152.897 212.543 153.169 212.543C153.441 212.543 153.65 212.751 153.65 213.024V213.745C153.65 214.338 153.602 214.931 153.49 215.508C153.441 215.732 153.233 215.893 153.009 215.893ZM127.46 213.553C127.187 213.553 126.979 213.344 126.979 213.072V210.668C126.979 210.395 127.187 210.187 127.46 210.187C127.732 210.187 127.94 210.395 127.94 210.668V213.072C127.94 213.328 127.716 213.553 127.46 213.553ZM153.153 211.101C152.881 211.101 152.673 210.892 152.673 210.62V208.216C152.673 207.943 152.881 207.735 153.153 207.735C153.425 207.735 153.634 207.943 153.634 208.216V210.62C153.634 210.892 153.425 211.101 153.153 211.101ZM127.46 208.745C127.187 208.745 126.979 208.536 126.979 208.264V205.86C126.979 205.587 127.187 205.379 127.46 205.379C127.732 205.379 127.94 205.587 127.94 205.86V208.264C127.94 208.52 127.716 208.745 127.46 208.745ZM153.153 206.293C152.881 206.293 152.673 206.084 152.673 205.812V203.408C152.673 203.135 152.881 202.927 153.153 202.927C153.425 202.927 153.634 203.135 153.634 203.408V205.812C153.634 206.084 153.425 206.293 153.153 206.293ZM127.46 203.937C127.187 203.937 126.979 203.728 126.979 203.456V201.052C126.979 200.78 127.187 200.571 127.46 200.571C127.732 200.571 127.94 200.78 127.94 201.052V203.456C127.94 203.712 127.716 203.937 127.46 203.937ZM153.153 201.485C152.881 201.485 152.673 201.276 152.673 201.004V198.6C152.673 198.327 152.881 198.119 153.153 198.119C153.425 198.119 153.634 198.327 153.634 198.6V201.004C153.634 201.276 153.425 201.485 153.153 201.485ZM127.46 199.129C127.187 199.129 126.979 198.92 126.979 198.648V196.581H128.276C128.548 196.581 128.756 196.789 128.756 197.061C128.756 197.334 128.548 197.542 128.276 197.542H127.94V198.648C127.94 198.904 127.716 199.129 127.46 199.129ZM152.289 197.542H149.888C149.615 197.542 149.407 197.334 149.407 197.061C149.407 196.789 149.615 196.581 149.888 196.581H152.289C152.561 196.581 152.769 196.789 152.769 197.061C152.769 197.334 152.561 197.542 152.289 197.542ZM147.486 197.542H145.085C144.813 197.542 144.605 197.334 144.605 197.061C144.605 196.789 144.813 196.581 145.085 196.581H147.486C147.758 196.581 147.967 196.789 147.967 197.061C147.967 197.334 147.758 197.542 147.486 197.542ZM142.684 197.542H140.282C140.01 197.542 139.802 197.334 139.802 197.061C139.802 196.789 140.01 196.581 140.282 196.581H142.684C142.956 196.581 143.164 196.789 143.164 197.061C143.164 197.334 142.956 197.542 142.684 197.542ZM137.881 197.542H135.48C135.208 197.542 135 197.334 135 197.061C135 196.789 135.208 196.581 135.48 196.581H137.881C138.153 196.581 138.361 196.789 138.361 197.061C138.361 197.334 138.153 197.542 137.881 197.542ZM133.079 197.542H130.677C130.405 197.542 130.197 197.334 130.197 197.061C130.197 196.789 130.405 196.581 130.677 196.581H133.079C133.351 196.581 133.559 196.789 133.559 197.061C133.559 197.334 133.351 197.542 133.079 197.542Z" fill="white"/>
<path d="M94.4502 223.906C94.2741 223.906 94.114 223.81 94.0339 223.649C93.9059 223.409 93.9859 223.12 94.226 222.992L96.1791 221.918C96.2271 221.886 96.2751 221.87 96.3232 221.838C96.5473 221.71 96.8515 221.79 96.9795 222.015C97.1076 222.239 97.0275 222.544 96.8034 222.672C96.7554 222.704 96.7074 222.736 96.6433 222.752L94.6903 223.826C94.6102 223.89 94.5302 223.906 94.4502 223.906ZM98.5003 221.342C98.3723 221.342 98.2442 221.293 98.1481 221.181C97.972 220.989 97.9881 220.684 98.1802 220.508C98.7405 219.995 99.2367 219.402 99.6689 218.777C99.813 218.553 100.117 218.505 100.341 218.649C100.565 218.793 100.613 219.098 100.469 219.322C100.005 220.011 99.4448 220.652 98.8365 221.229C98.7245 221.309 98.6124 221.342 98.5003 221.342ZM101.174 217.399C101.11 217.399 101.062 217.383 100.998 217.367C100.758 217.271 100.629 216.998 100.726 216.742C100.998 216.021 101.19 215.284 101.302 214.53C101.334 214.274 101.574 214.082 101.846 214.114C102.102 214.146 102.294 214.386 102.262 214.658C102.15 215.492 101.942 216.309 101.638 217.094C101.542 217.287 101.366 217.399 101.174 217.399ZM101.862 212.687C101.59 212.687 101.382 212.479 101.382 212.206V209.802C101.382 209.53 101.59 209.322 101.862 209.322C102.134 209.322 102.342 209.53 102.342 209.802V212.206C102.342 212.463 102.134 212.687 101.862 212.687ZM101.862 207.879C101.59 207.879 101.382 207.671 101.382 207.398V204.995C101.382 204.722 101.59 204.514 101.862 204.514C102.134 204.514 102.342 204.722 102.342 204.995V207.398C102.342 207.655 102.134 207.879 101.862 207.879ZM101.862 203.071C101.59 203.071 101.382 202.863 101.382 202.591V200.187C101.382 199.914 101.59 199.706 101.862 199.706C102.134 199.706 102.342 199.914 102.342 200.187V202.591C102.342 202.847 102.134 203.071 101.862 203.071ZM101.862 198.263C101.59 198.263 101.382 198.055 101.382 197.783V197.542H100.181C99.9091 197.542 99.701 197.334 99.701 197.061C99.701 196.789 99.9091 196.581 100.181 196.581H102.342V197.783C102.342 198.039 102.134 198.263 101.862 198.263ZM97.7799 197.542H95.3787C95.1065 197.542 94.8984 197.334 94.8984 197.061C94.8984 196.789 95.1065 196.581 95.3787 196.581H97.7799C98.0521 196.581 98.2602 196.789 98.2602 197.061C98.2602 197.334 98.0361 197.542 97.7799 197.542ZM92.9774 197.542H90.5761C90.3039 197.542 90.0958 197.334 90.0958 197.061C90.0958 196.789 90.3039 196.581 90.5761 196.581H92.9774C93.2495 196.581 93.4576 196.789 93.4576 197.061C93.4576 197.334 93.2335 197.542 92.9774 197.542ZM88.1748 197.542H85.7735C85.5014 197.542 85.2933 197.334 85.2933 197.061C85.2933 196.789 85.5014 196.581 85.7735 196.581H88.1748C88.447 196.581 88.6551 196.789 88.6551 197.061C88.6551 197.334 88.4309 197.542 88.1748 197.542Z" fill="white"/>
<path d="M206.013 123.967C207.182 127.028 199.786 132.461 189.62 136.323C179.455 140.185 170.346 140.778 169.177 137.701C168.009 134.624 175.228 129.079 185.41 125.217C195.591 121.354 204.844 120.89 206.013 123.967Z" fill="#FE5244"/>
<path d="M211.696 223.393V225.092C211.167 224.964 210.607 224.9 210.047 224.9H207.982C204.924 224.9 202.315 222.945 201.322 220.22L207.181 219.435C209.566 219.114 211.696 220.973 211.696 223.393Z" fill="#73325A"/>
<path d="M217.107 231.968V245.013C217.107 248.058 214.642 250.526 211.6 250.526H205.469C203.948 250.526 202.571 249.917 201.579 248.908C200.586 247.914 199.962 246.536 199.962 245.013H203.948C205.261 245.013 206.317 243.955 206.317 242.641V239.228C206.317 237.913 205.261 236.856 203.948 236.856H183.569C175.613 236.856 169.162 230.397 169.162 222.432V136.242C170.122 133.084 176.67 128.517 185.394 125.215C191.349 122.956 197.001 121.866 200.891 121.962V217.832C200.891 221.743 204.06 224.916 207.966 224.916H210.031C213.938 224.9 217.107 228.057 217.107 231.968Z" fill="#A0505A"/>
<path d="M200.891 121.946V130.664C197.993 132.62 194.071 134.623 189.605 136.306C179.423 140.168 170.33 140.761 169.162 137.684V136.225C170.122 133.068 176.67 128.501 185.394 125.199C191.366 122.94 197.001 121.85 200.891 121.946Z" fill="#73325A"/>
<path d="M174.268 57.022L168.249 72.5517L137.225 78.1129L145.325 57.022H174.268Z" fill="#A0505A"/>
<path d="M174.268 57.022L171.019 65.4199L140.251 70.2279L145.325 57.022H174.268Z" fill="#73325A"/>
<path d="M192.455 25.4181C192.455 27.5176 188.821 29.8414 184.627 31.7966C178.912 34.4731 172.172 36.5084 172.172 36.5084L167.626 45.0826C173.805 48.368 176.222 54.2657 177.183 58.3846C177.791 61.0129 177.791 62.888 177.791 62.888H134.216C134.216 62.888 122.77 25.7707 150.352 16.892C167.225 11.459 192.455 20.4339 192.455 25.4181Z" fill="white"/>
<path fill-rule="evenodd" clip-rule="evenodd" d="M177.61 17.7138C169.238 15.5378 158.814 14.6722 150.499 17.3496C143.716 19.5329 139.354 23.4412 136.607 28.07C133.854 32.71 132.71 38.0987 132.419 43.2465C132.129 48.3921 132.693 53.2699 133.331 56.8655C133.649 58.662 133.986 60.1355 134.243 61.1585C134.371 61.6699 134.48 62.0685 134.556 62.3385C134.562 62.3624 134.569 62.3852 134.575 62.4071H177.293C177.282 62.2127 177.264 61.9636 177.236 61.6675C177.162 60.8876 177.013 59.7832 176.714 58.4933C175.768 54.4355 173.402 48.6985 167.4 45.5071L166.976 45.2816L171.841 36.1058L172.033 36.048L172.08 36.2036C172.033 36.048 172.033 36.048 172.033 36.048L172.034 36.0477L172.051 36.0423C172.064 36.0385 172.083 36.0327 172.108 36.025C172.158 36.0097 172.232 35.9867 172.329 35.9565C172.523 35.8961 172.808 35.8066 173.166 35.6908C173.884 35.4592 174.901 35.1225 176.096 34.7024C178.489 33.8615 181.585 32.6896 184.423 31.361C186.508 30.389 188.43 29.3357 189.823 28.2782C190.519 27.7493 191.067 27.2319 191.436 26.7374C191.807 26.2411 191.974 25.8018 191.974 25.4179C191.974 24.9916 191.695 24.4243 191 23.7405C190.32 23.0707 189.31 22.357 188.016 21.6396C185.431 20.2069 181.79 18.8005 177.61 17.7138ZM177.791 62.888L178.271 62.8879V63.3687H133.861L133.756 63.0297L134.216 62.888C133.757 63.0298 133.756 63.0301 133.756 63.0297L133.754 63.0216L133.747 63C133.742 62.9812 133.733 62.9536 133.723 62.9174C133.701 62.845 133.67 62.7383 133.631 62.5992C133.553 62.3211 133.442 61.9137 133.311 61.3928C133.05 60.3513 132.708 58.8556 132.385 57.0336C131.739 53.3922 131.165 48.4358 131.46 43.1922C131.756 37.9509 132.923 32.3955 135.781 27.5789C138.646 22.751 143.196 18.6902 150.205 16.4342C158.763 13.6786 169.39 14.5839 177.851 16.7831C182.087 17.884 185.808 19.3163 188.481 20.7984C189.816 21.5385 190.908 22.3012 191.674 23.055C192.425 23.7947 192.934 24.5982 192.934 25.4179C192.934 26.0838 192.647 26.7223 192.205 27.3134C191.763 27.9061 191.139 28.4855 190.403 29.0444C188.93 30.1625 186.938 31.2491 184.829 32.2324C181.951 33.58 178.821 34.7638 176.415 35.6097C175.21 36.033 174.185 36.3724 173.461 36.6061C173.099 36.7229 172.812 36.8134 172.615 36.8747C172.573 36.8876 172.536 36.8993 172.502 36.9096L168.271 44.8888C174.316 48.3075 176.697 54.1889 177.65 58.2751C177.959 59.6134 178.115 60.7614 178.192 61.5761C178.231 61.9836 178.251 62.3083 178.261 62.5327C178.266 62.645 178.268 62.7321 178.269 62.792C178.27 62.822 178.27 62.8451 178.27 62.8612C178.271 62.8692 178.271 62.8755 178.271 62.8799L178.271 62.8879C178.271 62.888 178.271 62.888 177.791 62.888Z" fill="#FFCF2D"/>
<path d="M146.317 22.1807C152.303 22.1807 157.155 17.323 157.155 11.3308C157.155 5.33852 152.303 0.480844 146.317 0.480844C140.332 0.480844 135.48 5.33852 135.48 11.3308C135.48 17.323 140.332 22.1807 146.317 22.1807Z" fill="white"/>
<path fill-rule="evenodd" clip-rule="evenodd" d="M146.318 0.961589C140.597 0.961589 135.96 5.60401 135.96 11.3307C135.96 17.0574 140.597 21.6999 146.318 21.6999C152.038 21.6999 156.675 17.0574 156.675 11.3307C156.675 5.60401 152.038 0.961589 146.318 0.961589ZM135 11.3307C135 5.07294 140.067 0 146.318 0C152.569 0 157.636 5.07294 157.636 11.3307C157.636 17.5885 152.569 22.6615 146.318 22.6615C140.067 22.6615 135 17.5885 135 11.3307Z" fill="#FFCF2D"/>
<path d="M177.166 58.3832C176.27 54.4888 174.028 48.9436 168.505 45.5941H167.081C165.768 45.5941 164.567 45.0652 163.703 44.1998C162.838 43.3344 162.31 42.1324 162.31 40.8182C162.31 38.1739 164.439 36.0423 167.081 36.0423L173.116 36.1705H173.276C173.388 36.1385 173.5 36.0904 173.628 36.0584C175.261 35.7058 180.432 34.4557 184.722 32.3082L185.218 35.2731L186.819 44.7768C187.908 51.2995 183.441 57.3095 177.166 58.3832Z" fill="#A0505A"/>
<path d="M185.203 35.2583C179.952 37.3899 173.1 36.1558 173.1 36.1558C173.1 36.1558 179.552 34.8737 184.706 32.2934L185.203 35.2583Z" fill="#73325A"/>
<path fill-rule="evenodd" clip-rule="evenodd" d="M167.097 38.4317C167.097 38.2104 167.276 38.031 167.497 38.031C169.543 38.031 171.195 39.6848 171.195 41.7331C171.195 41.9544 171.016 42.1338 170.795 42.1338C170.574 42.1338 170.394 41.9544 170.394 41.7331C170.394 40.1274 169.101 38.8323 167.497 38.8323C167.276 38.8323 167.097 38.653 167.097 38.4317Z" fill="#73325A"/>
<path fill-rule="evenodd" clip-rule="evenodd" d="M205.857 399.918L187.272 245.07L188.225 244.956L206.811 399.804L205.857 399.918Z" fill="#66B0F0"/>
<path fill-rule="evenodd" clip-rule="evenodd" d="M88.1308 399.803L106.701 244.956L107.654 245.07L89.0845 399.918L88.1308 399.803Z" fill="#66B0F0"/>
<path fill-rule="evenodd" clip-rule="evenodd" d="M199.947 347.166H94.9787V346.204H199.947V347.166Z" fill="#66B0F0"/>
<path d="M91.0248 245.013H203.901C205.246 245.013 206.334 243.923 206.334 242.577V239.276C206.334 237.929 205.246 236.84 203.901 236.84H91.0248C89.6801 236.84 88.5916 237.929 88.5916 239.276V242.577C88.6076 243.923 89.6961 245.013 91.0248 245.013Z" fill="white"/>
<path fill-rule="evenodd" clip-rule="evenodd" d="M88.1106 239.276C88.1106 237.664 89.4142 236.359 91.0242 236.359H203.9C205.51 236.359 206.814 237.664 206.814 239.276V242.577C206.814 244.189 205.51 245.494 203.9 245.494H91.0242C89.4271 245.494 88.1297 244.187 88.1106 242.583L88.1106 242.58V239.276ZM91.0242 237.32C89.9447 237.32 89.0711 238.195 89.0711 239.276V242.574C89.0855 243.661 89.9647 244.532 91.0242 244.532H203.9C204.98 244.532 205.853 243.658 205.853 242.577V239.276C205.853 238.195 204.98 237.32 203.9 237.32H91.0242Z" fill="#FFCF2D"/>
</svg>
